<?xml version="1.0" encoding="UTF-8" standalone="no"?>
<!-- Created with Inkscape (http://www.inkscape.org/) -->

<svg
   version="1.1"
   id="svg1"
   width="72.381134"
   height="81.424324"
   viewBox="0 0 72.381133 81.424324"
   sodipodi:docname="monster-2.svg"
   xmlns:inkscape="http://www.inkscape.org/namespaces/inkscape"
   xmlns:sodipodi="http://sodipodi.sourceforge.net/DTD/sodipodi-0.dtd"
   xmlns:xlink="http://www.w3.org/1999/xlink"
   xmlns="http://www.w3.org/2000/svg"
   xmlns:svg="http://www.w3.org/2000/svg">
  <sodipodi:namedview
     id="namedview1"
     pagecolor="#ffffff"
     bordercolor="#000000"
     borderopacity="0.25"
     inkscape:showpageshadow="2"
     inkscape:pageopacity="0.0"
     inkscape:pagecheckerboard="0"
     inkscape:deskcolor="#d1d1d1">
    <inkscape:page
       x="0"
       y="0"
       width="72.381134"
       height="81.424324"
       id="page1"
       margin="0"
       bleed="0" />
  </sodipodi:namedview>
  <defs
     id="defs1">
    <linearGradient
       id="linearGradient13">
      <stop
         style="stop-color:#0000c0;stop-opacity:1;"
         offset="0"
         id="stop13" />
      <stop
         style="stop-color:#000097;stop-opacity:1;"
         offset="0.5"
         id="stop15" />
    </linearGradient>
    <linearGradient
       id="linearGradient11">
      <stop
         style="stop-color:#000080;stop-opacity:1;"
         offset="0"
         id="stop11" />
      <stop
         style="stop-color:#000080;stop-opacity:0;"
         offset="1"
         id="stop12" />
    </linearGradient>
    <linearGradient
       id="linearGradient3">
      <stop
         style="stop-color:#6565ff;stop-opacity:1;"
         offset="0"
         id="stop3" />
      <stop
         style="stop-color:#00006c;stop-opacity:0.96277916;"
         offset="1"
         id="stop4" />
    </linearGradient>
    <linearGradient
       xlink:href="#linearGradient3"
       id="linearGradient4"
       x1="182.56374"
       y1="419.65732"
       x2="732.78223"
       y2="419.65732"
       gradientUnits="userSpaceOnUse"
       gradientTransform="matrix(1.0456828,0,0,1.0051566,-33.462847,-0.43787694)" />
    <linearGradient
       xlink:href="#linearGradient11"
       id="linearGradient12"
       x1="92.215034"
       y1="595.63538"
       x2="157.25194"
       y2="595.63538"
       gradientUnits="userSpaceOnUse"
       gradientTransform="matrix(1.0035282,0,0,0.9999974,-2.6290453,0.00119887)" />
    <linearGradient
       xlink:href="#linearGradient13"
       id="linearGradient14"
       x1="99.894783"
       y1="662.12537"
       x2="218.36833"
       y2="662.12537"
       gradientUnits="userSpaceOnUse"
       gradientTransform="matrix(1.0035282,0,0,0.9999974,-2.6290453,0.00119887)" />
  </defs>
  <g
     id="layer4"
     style="display:inline;stroke:#ededed;stroke-width:5.5108;stroke-dasharray:none;stroke-opacity:0.830537"
     transform="matrix(0.10925957,0,0,0.1084961,-9.3083618,-9.1823545)">
    <path
       style="fill:#000080;stroke:#ededed;stroke-width:5.5108;stroke-dasharray:none;stroke-opacity:0.830537"
       d="m 101.35881,587.19243 c 15.5986,-0.92191 31.30413,-1.6636 46.77814,1.04946 15.81135,1.6532 33.90766,3.11406 45.27058,15.60601 2.76889,4.48337 11.12623,15.99785 -0.47808,11.63329 -8.51962,-4.79146 -15.85322,-11.5098 -25.6831,-13.91242 -10.7971,-6.23758 -23.01549,-6.62279 -35.11824,-6.74334 -12.22057,-3.42933 -22.91693,-0.33512 -33.428393,6.10019 -13.682071,6.67132 0.607165,-10.20412 2.659093,-13.73319 z"
       id="path4" />
    <path
       style="fill:url(#linearGradient14);fill-opacity:1;stroke:#ededed;stroke-width:5.5108;stroke-dasharray:none;stroke-opacity:0.830537"
       d="m 206.50208,637.85206 c -12.57641,0.42656 -25.32013,-0.904 -37.7869,0.76247 -10.40746,2.77695 -21.35516,3.8537 -31.58718,6.93829 -9.47255,6.24397 -19.83672,11.21464 -29.33438,17.26419 -6.20652,5.9281 -8.617949,14.51437 -9.51118,22.72059 6.39571,-6.97566 11.03927,-17.23315 21.22063,-19.64321 11.41823,-5.20084 22.59455,-11.10539 34.23218,-15.72103 13.69795,-2.83873 27.63021,-6.16154 41.61808,-6.2075 6.29757,0.40196 16.78889,9.03276 20.63705,3.4404 -0.55371,-4.94742 -6.29347,-6.54824 -9.4883,-9.5542 z"
       id="path5" />
    <path
       style="fill:#000080;stroke:#ededed;stroke-width:5.5108;stroke-dasharray:none;stroke-opacity:0.830537"
       d="m 632.85228,704.63066 c 15.21962,3.56712 31.11288,5.21941 45.14734,12.52901 14.93259,6.16184 30.50934,10.82596 44.42164,19.2226 13.67524,3.69907 14.87052,19.39017 19.48832,30.75524 0.42024,3.8098 3.73968,17.0911 2.11894,15.2719 -5.89216,-12.23291 -13.43068,-23.81072 -23.2843,-33.2066 -10.66149,-6.10109 -23.54321,-7.63021 -34.4595,-13.59641 -15.08294,-7.07088 -30.33072,-13.89089 -44.66308,-22.42504 -5.14546,-3.72794 -18.57341,4.25191 -18.58202,1.09202 3.39025,-3.08437 6.52866,-6.44455 9.81266,-9.64272 z"
       id="path6" />
    <path
       style="fill:#000080;stroke:#ededed;stroke-width:5.5108;stroke-dasharray:none;stroke-opacity:0.830537"
       d="m 594.72339,729.96049 c 7.11855,9.42587 14.40047,18.88794 24.24811,25.66342 9.60212,8.18653 19.56209,16.27175 27.75759,25.83544 4.6624,5.93775 8.36645,12.62785 7.759,20.43325 1.49973,11.05919 -5.22535,20.417 -11.53892,28.73172 -4.87774,5.81002 2.85009,-12.31997 0.922,-17.02343 -1.15566,-8.1499 -4.20136,-15.84119 -9.10673,-22.47154 -4.90619,-9.87807 -12.1241,-18.15578 -19.92916,-25.83732 -9.54402,-9.93511 -18.08892,-21.39588 -29.9121,-28.73454 -15.15557,-5.09375 6.53065,-4.39018 9.80021,-6.597 z"
       id="path7" />
    <path
       style="display:inline;fill:url(#linearGradient4);stroke:#ededed;stroke-width:5.5108;stroke-dasharray:none;stroke-opacity:0.830537"
       d="M 514.33691,428.91875 C 575.4595,343.44838 637.15356,257.9171 705.28563,177.56479 c 36.43452,-14.70804 24.95987,38.74773 20.71893,57.53414 -18.53851,93.26134 -39.32083,186.12428 -57.56134,279.45968 11.87948,22.50754 22.61843,45.96455 21.41673,71.79087 1.65233,35.75697 -8.61525,71.99806 -32.53452,99.88288 -17.69324,21.74239 -43.10365,37.4926 -70.14374,46.92148 -44.28003,19.78932 -94.45245,26.76849 -142.71018,20.22847 C 365.75147,741.72202 286.24312,720.82546 219.65026,677.49622 198.91537,661.63114 181.17042,643.6902 172.30442,619.2221 158.0225,585.50882 154.99553,547.05303 162.29348,511.37324 c 15.50488,-39.56079 33.84737,-81.48189 71.92969,-105.83529 12.69138,-19.44679 7.44747,-48.36059 19.77894,-70.34011 18.79779,-47.07621 39.71336,-93.34352 55.69266,-141.4364 15.28223,-36.07454 26.28221,-75.14095 51.13667,-106.368777 33.17837,-0.572818 21.44859,52.646647 27.43324,75.545197 6.97825,77.71368 2.71599,155.90039 10.49251,233.57661 40.04429,4.76564 81.00716,10.99828 115.57972,32.40428 z"
       id="body" />
    <path
       style="display:inline;fill:#ffffff;fill-opacity:1;stroke:#ededed;stroke-width:5.5108;stroke-dasharray:none;stroke-opacity:0.830537"
       d="m 491.89096,559.5599 c 8.62991,-6.93668 17.06621,-14.11226 25.8163,-20.90023 9.53201,-3.69015 18.43666,-10.06758 29.12442,-9.62167 10.20477,-2.66779 18.4548,3.55059 26.41102,8.76038 8.89186,4.9864 12.54702,14.98257 18.8273,22.48502 5.65667,8.98522 7.5679,19.66702 11.45231,29.45512 1.47768,6.59775 6.65567,12.97977 3.94547,19.81719 -1.97407,9.17616 -3.76011,18.39621 -6.06191,27.49907 -7.23432,10.24417 -14.46862,20.48835 -21.70294,30.73252 -11.34293,2.49244 -22.32207,7.18065 -33.94979,8.05949 -14.48779,0 -28.97559,0 -43.46339,0 -10.33544,-5.25716 -22.36636,-7.99228 -30.41538,-16.91497 -5.60102,-6.17613 -15.59355,-10.12221 -15.979,-19.39604 -1.48138,-7.08558 -2.96276,-14.17117 -4.44413,-21.25676 7.66913,-13.55463 13.88825,-28.17171 24.68892,-39.68048 5.18269,-6.4013 10.42049,-12.75869 15.7508,-19.03864 z"
       id="path8" />
    <path
       style="display:inline;fill:#ffffff;fill-opacity:1;stroke:#ededed;stroke-width:5.5108;stroke-dasharray:none;stroke-opacity:0.830537"
       d="m 352.08507,518.1111 c -1.9257,-7.29191 -3.8514,-14.58383 -5.7771,-21.87574 -12.66424,-7.89025 -25.14573,-19.59391 -41.18747,-18.10469 -11.59549,0.40098 -20.89497,8.45968 -30.59166,13.89618 -14.01733,8.01973 -25.13403,20.28024 -33.12109,34.16853 -7.23697,7.9612 -8.00086,18.85921 -10.64183,28.75909 8.03436,15.57216 17.23995,30.47498 27.81604,44.46186 5.03373,9.87999 14.88395,14.7081 23.85753,20.45963 10.37062,5.97752 22.57832,7.33799 33.82754,11.06797 13.3843,-5.75828 27.30242,-11.57425 38.08614,-21.49239 8.28273,-11.21058 10.92546,-25.26681 12.68147,-38.78435 -2.4077,-14.1089 -4.14394,-28.51129 -10.61092,-41.50746 -1.44622,-3.68288 -2.89243,-7.36575 -4.33865,-11.04863 z"
       id="path9" />
    <path
       style="fill:#000000;fill-opacity:1;stroke:#ededed;stroke-width:5.5108;stroke-dasharray:none;stroke-opacity:0.830537"
       d="m 526.55358,587.19243 c -1.84135,-4.83769 -4.82599,-11.75449 -10.91034,-6.93592 -6.14654,0.46768 -8.28714,5.75234 -9.45399,10.89494 -3.08076,7.40471 -4.93084,15.20934 -5.74396,23.17187 -1.50475,6.5207 -1.96132,12.87709 1.39595,18.90531 1.02384,3.29357 3.07896,9.19305 6.20304,3.73968 5.66811,-6.07356 14.88977,-10.28576 13.94269,-19.83615 0.8848,-7.65244 4.33984,-14.77617 4.06092,-22.58546 0.13206,-2.45358 0.2469,-4.90981 0.50569,-7.35427 z"
       id="right-eye" />
    <path
       style="fill:#000000;fill-opacity:1;stroke:#ededed;stroke-width:5.5108;stroke-dasharray:none;stroke-opacity:0.830537"
       d="m 331.2875,586.04107 c 0.84609,-8.75577 -0.23487,-18.11247 4.48225,-26.01917 3.31563,-6.54836 8.12602,-12.16567 12.84906,-17.73233 -3.08112,-3.83785 -6.16224,-7.6757 -9.24336,-11.51355 -6.3114,3.67139 -13.34824,7.01699 -16.50954,14.05601 -5.84862,5.38762 -7.78331,12.86069 -8.103,20.52685 -1.23342,7.32844 -0.12187,14.83188 1.64142,21.96322 1.46364,6.69583 8.81995,6.96734 11.75735,1.2203 1.00653,-0.88138 2.17479,-1.54091 3.12582,-2.50133 z"
       id="left-eye" />
    <path
       style="fill:url(#linearGradient12);stroke:#ededed;stroke-width:5.5108;stroke-dasharray:none;stroke-opacity:0.830537"
       d="m 154.50815,587.19243 -3.46626,10.36219 -11.5542,-3.45406 H 129.0889 116.37928 l -9.24337,1.15135 -16.175888,10.3622 4.621682,-11.51355 3.466258,-9.21084 h 16.175888 20.79757 z"
       id="path11" />
    <path
       style="fill:#000080;fill-opacity:1;stroke:#ededed;stroke-width:5.5108;stroke-dasharray:none;stroke-opacity:0.830537"
       d="m 97.892549,683.90628 6.932521,-21.87576 13.86505,-8.05948 13.86505,-6.90814 6.93252,10.3622 -10.39879,4.60542 -12.70962,4.60542 -4.62168,2.30272 z"
       id="left-pow-2" />
    <path
       style="fill:#000080;fill-opacity:1;stroke:#ededed;stroke-width:5.5108;stroke-dasharray:none;stroke-opacity:0.830537"
       d="m 674.44742,728.80913 26.57467,11.51356 16.17589,8.05948 9.24337,6.90813 9.24335,10.3622 9.24337,18.42169 -2.31084,-19.57304 -5.7771,-14.96762 -5.7771,-10.3622 -20.79757,-10.3622 -19.64215,-9.21084 z"
       id="right-pow-1" />
    <path
       style="fill:#000080;fill-opacity:1;stroke:#ededed;stroke-width:5.5108;stroke-dasharray:none;stroke-opacity:0.830537"
       d="m 616.67638,766.80386 10.39879,-4.60543 15.02047,16.11898 9.24336,10.36221 4.62169,9.21083 -2.31084,18.42169 -11.55421,17.27033 3.46626,-14.96762 -6.93252,-20.7244 -8.08795,-16.11897 z"
       id="right-pow-2" />
  </g>
</svg>
