<?xml version="1.0" encoding="UTF-8" standalone="no"?>
<!-- Created with Inkscape (http://www.inkscape.org/) -->

<svg
   version="1.1"
   id="svg1"
   width="800.14166"
   height="619.1167"
   viewBox="0 0 800.14166 619.1167"
   xmlns:xlink="http://www.w3.org/1999/xlink"
   xmlns="http://www.w3.org/2000/svg"
   xmlns:svg="http://www.w3.org/2000/svg">
  <defs
     id="defs1">
    <linearGradient
       id="linearGradient13">
      <stop
         style="stop-color:#ffd42a;stop-opacity:1;"
         offset="0"
         id="stop13" />
      <stop
         style="stop-color:#b8cd00;stop-opacity:0.32009926;"
         offset="1"
         id="stop14" />
    </linearGradient>
    <linearGradient
       id="linearGradient11">
      <stop
         style="stop-color:#ffd42a;stop-opacity:1;"
         offset="0"
         id="stop11" />
      <stop
         style="stop-color:#ffe33a;stop-opacity:0.4987593;"
         offset="1"
         id="stop12" />
    </linearGradient>
    <linearGradient
       id="linearGradient4">
      <stop
         style="stop-color:#920078;stop-opacity:1;"
         offset="0"
         id="stop3" />
      <stop
         style="stop-color:#ed00c0;stop-opacity:0.06451613;"
         offset="1"
         id="stop4" />
    </linearGradient>
    <linearGradient
       id="linearGradient1">
      <stop
         style="stop-color:#920078;stop-opacity:1;"
         offset="0"
         id="stop1" />
      <stop
         style="stop-color:#270020;stop-opacity:1;"
         offset="1"
         id="stop2" />
    </linearGradient>
    <linearGradient
       xlink:href="#linearGradient1"
       id="linearGradient2"
       x1="348.07761"
       y1="296.38293"
       x2="853.82404"
       y2="296.38293"
       gradientUnits="userSpaceOnUse"
       gradientTransform="translate(-50.833118,-23.316255)" />
    <linearGradient
       xlink:href="#linearGradient4"
       id="linearGradient3"
       gradientUnits="userSpaceOnUse"
       x1="348.07761"
       y1="296.38293"
       x2="856.724"
       y2="275.26688"
       gradientTransform="rotate(31.854929,601.61183,200.19231)" />
    <filter
       style="color-interpolation-filters:sRGB"
       id="filter4"
       x="-0.0038226952"
       y="-0.0035441568"
       width="1.0076454"
       height="1.0070883">
      <feGaussianBlur
         stdDeviation="0.79324222"
         id="feGaussianBlur4" />
    </filter>
    <linearGradient
       xlink:href="#linearGradient11"
       id="linearGradient12"
       x1="3"
       y1="404.11255"
       x2="218.39456"
       y2="404.11255"
       gradientUnits="userSpaceOnUse"
       gradientTransform="rotate(-19.264351,408.33652,465.07208)" />
    <linearGradient
       xlink:href="#linearGradient13"
       id="linearGradient14"
       x1="50.833118"
       y1="529.87061"
       x2="266.22769"
       y2="529.87061"
       gradientUnits="userSpaceOnUse"
       gradientTransform="translate(-50.833118,-23.316255)" />
  </defs>
  <path
     style="display:inline;mix-blend-mode:normal;fill:url(#linearGradient2);filter:url(#filter4)"
     d="m 574.6727,78.349985 c 6.49268,-10.052325 20.25545,-48.576259 15.07762,-12.923677 -5.98942,48.757732 18.26962,-45.611022 13.78525,2.153943 -6.52665,41.688709 20.10702,-26.011619 18.021,12.123394 10.18512,-23.508274 19.22479,-48.666715 28.93502,-72.8646606 8.0878,24.9595106 -18.2989,56.7593506 -24.23767,84.3338006 -8.74805,43.417175 39.51451,-71.451089 23.8519,-18.279428 -7.983,17.272218 -20.48966,38.617003 1.26523,13.515618 -3.08638,12.21592 -11.18941,36.278845 1.9971,10.69654 4.75195,-19.20509 41.00252,-54.858291 21.04403,-15.22866 -5.26026,11.31259 -23.75115,41.179825 -2.7455,17.37302 27.93972,-22.888254 9.38808,1.996875 -0.55412,15.589105 16.54954,-9.68971 40.42341,-33.686775 22.13485,1.95893 -7.46159,20.79296 -21.1498,51.92685 2.69243,20.73173 8.68244,-15.63717 57.74151,-56.706765 30.29,-18.41053 -10.89901,11.55581 -53.23413,51.48686 -12.52064,36.02255 20.25406,-8.67769 38.69471,-25.09796 16.53953,2.77344 -26.43968,30.40399 16.06963,22.15004 28.48897,28.27143 -17.36461,8.88735 -54.90369,46.49015 -16.67748,26.31226 15.93851,-13.37379 34.73446,1.3265 6.26646,7.51628 -13.84926,4.89862 -55.4062,16.57955 -22.75911,26.80756 17.2531,-4.04367 75.25825,-26.12412 72.58056,-7.74696 -16.93662,3.99051 -93.12191,17.13768 -38.55523,20.74974 30.00707,0.64125 -35.83676,10.19534 5.0497,15.23062 16.3429,6.04231 44.75669,13.53295 12.66019,15.43641 -20.04193,0.93748 -88.11105,22.82886 -33.79613,27.63746 49.03365,10.52301 -52.2269,4.38421 -8.4727,15.46265 20.37952,6.83195 28.45302,18.97197 0.72021,10.07092 -51.49112,-19.00917 74.00098,26.60554 17.17474,14.86952 -47.80407,-17.07274 38.49848,33.36394 26.43713,29.99419 -20.40369,-0.13114 -62.55969,-14.98758 -24.32631,4.20501 41.32706,25.0782 -68.33582,-23.05374 -29.37544,4.40176 18.74958,7.68801 54.66395,38.96111 13.80987,18.21314 -16.86018,-6.59759 -38.86865,-29.46377 -17.21528,-1.52017 -19.08985,0.4944 27.70353,33.44369 -9.30149,7.72588 1.21008,16.70085 35.17305,79.28624 -0.67702,43.74808 -15.91781,-9.08816 -48.32449,-27.23413 -20.00224,-0.85614 18.06257,11.65998 30.22464,48.9988 4.95563,16.70427 -14.82168,-15.93301 -30.9802,-44.70411 -24.88747,-8.4183 -19.35007,-21.10674 5.42483,37.55914 -13.8485,-0.4873 -11.43718,-16.79231 -35.44891,-32.21469 -26.3481,1.31331 9.20162,19.68078 12.72448,54.87962 -4.44885,20.03893 -4.54277,-20.3503 -20.79325,-31.01319 -13.8723,-1.99421 -5.69364,18.89088 5.41141,58.4345 -10.16268,19.25507 -3.88414,-17.16355 -36.81224,-62.92614 -30.98077,-18.56493 5.17234,20.29072 -12.00586,47.61751 -9.21291,11.20366 -5.51867,-48.13403 -15.91041,20.89968 -24.85342,33.53465 -5.46557,12.61157 -6.84328,-37.07498 -14.88988,-48.49098 -3.94132,-23.90946 -10.21824,41.13932 -11.53793,2.7027 -18.06437,-17.39533 -55.47658,72.28681 -33.88119,13.10253 8.85051,-17.89193 19.32335,-59.15679 -1.69754,-24.11568 -6.37437,11.82992 -16.35257,70.9683 -16.50836,33.75261 6.2375,-14.70791 10.61137,-69.99234 -11.55417,-32.82725 -20.06706,29.63744 -11.82127,-10.73063 -13.45267,-24.63391 1.58384,-1.43757 -31.19781,48.55719 -17.07552,13.21796 10.10653,-16.05759 19.88732,-34.59811 -2.20534,-12.01215 -18.63497,17.35797 -23.66246,22.05001 -19.50068,-3.96776 -21.14568,17.8733 26.84365,-60.28533 -3.74771,-23.60278 -6.21101,17.56421 -53.52391,51.84281 -25.78753,16.37683 15.77146,-16.78365 56.25274,-63.42996 13.33098,-35.53865 -17.74622,6.75567 -50.95575,41.76557 -22.9849,7.65693 10.69179,-15.63104 32.96997,-40.39592 1.91107,-23.49762 3.91861,-7.17829 44.77581,-38.16872 11.35101,-20.35992 -13.24082,14.73521 -53.82063,15.78744 -17.45068,0.73108 17.99221,-10.93262 69.04194,-30.20327 20.32906,-16.32833 -19.89696,3.29851 -57.26365,21.73982 -28.82013,-7.1159 34.88416,-43.16738 -64.16986,1.35554 -22.0811,-20.30878 20.81426,-9.79611 41.73381,-40.21804 3.10346,-39.47934 46.04152,2.73602 -46.97544,-13.14091 -4.8543,-11.82258 16.13665,4.48425 45.36012,1.46361 14.33612,-7.76612 -18.58458,4.76113 -55.30869,-18.97264 -18.33515,-11.92279 45.95522,14.88646 -55.98306,-38.39849 1.95474,-24.9678 18.11845,1.27792 48.33739,-5.01732 17.29207,-15.21963 -26.7377,-14.89262 -4.89168,-9.05709 13.07671,-3.52847 -8.17463,-12.27581 -65.04357,-29.45415 -42.89748,-36.40317 15.86759,13.66739 80.9821,43.29493 39.19652,8.49233 -11.33245,-8.32814 -31.95865,-21.56619 -5.94101,-8.68862 30.7687,13.05705 7.34824,-7.84646 -6.00501,-14.12526 25.68092,8.21988 63.33256,9.88675 26.87478,-12.14776 18.71099,3.52015 34.31032,6.47208 14.74653,-12.89639 -6.74851,-11.4185 -27.60494,-41.317795 -1.85014,-20.7279 39.3758,32.1288 -46.27017,-60.018403 -5.60994,-32.602205 9.57372,18.101055 58.95179,74.705385 29.80829,26.703605 -9.05381,-20.809725 -30.10141,-53.154591 1.4336,-25.764405 27.00828,25.406035 -12.55511,-36.644418 12.67755,0.97025 17.13595,25.019175 24.52235,21.299515 13.98295,-6.33699 -7.324,-24.095425 39.35342,42.431275 15.6693,1.04769 -14.33138,-15.533087 -11.87921,-43.849148 1.82609,-10.543176 11.47947,17.681916 21.34004,38.442411 8.65589,6.573606 -7.01481,-11.815124 -22.39218,-51.217441 -1.94902,-26.417555 3.60186,21.267042 17.58926,27.520085 6.12755,2.100459 23.2825,36.873116 -5.6391,-40.351433 13.71705,-3.484005 10.11889,10.861667 39.48903,64.527356 32.03585,20.348721 -4.25743,-18.151262 -10.81426,-35.082913 3.93847,-10.982757 30.92984,35.972977 -11.0375,-53.0240426 10.47635,-60.2767766 4.51231,19.8463106 6.1278,45.9886526 9.12676,65.3903366 1.66027,-32.891115 20.98817,39.650422 14.72808,-4.155493 -6.65478,-18.979725 0.68835,-70.4835276 3.94767,-24.878461 -2.28522,61.173661 38.00237,-66.961596 28.7255,-2.843704 1.00302,14.557248 4.56854,28.213477 2.29132,42.933525 z"
     id="shadow-body" />
  <path
     style="fill:#000000;fill-opacity:1"
     d="m 361.00129,323.03821 c -15.45736,1.81419 -31.11093,3.32687 -45.45659,9.8758 -27.53192,11.46248 -55.40434,22.75979 -80.2137,39.56245 -23.87877,15.12035 -48.75151,28.85208 -71.51598,45.62872 -2.51803,3.48984 -11.50294,5.31856 -8.37668,10.24433 4.84544,21.55705 21.50388,-1.70261 30.99745,-7.65263 24.07598,-19.34522 51.79178,-33.50369 78.34284,-49.04925 25.90892,-13.74639 53.94529,-22.57219 81.21371,-33.12877 9.44315,-3.2024 29.74971,4.76949 29.52392,-8.60555 -3.52573,-3.59652 -10.0187,-4.38939 -14.51497,-6.8751 z"
     id="left-hand" />
  <path
     style="fill:#000000;fill-opacity:1"
     d="m 146.4683,525.50911 c 17.42026,7.12078 35.45905,13.06068 54.32732,14.51358 19.61001,3.29027 39.60296,1.58914 59.39259,1.42586 20.74151,-0.79197 41.69289,-0.81421 61.95279,-5.83526 22.00311,-4.32199 43.97306,-9.14635 65.60296,-14.99771 27.0344,-8.27046 53.10555,-19.23531 79.09513,-30.27275 24.87833,-12.14654 50.56723,-22.88098 74.52062,-36.76536 10.27459,-6.70419 20.54605,-13.41313 30.72826,-20.25724 4.13879,4.72073 6.83803,9.29891 -0.008,12.9319 -10.25654,7.75237 -21.56588,14.37671 -32.60301,21.03608 -32.79203,15.7003 -64.19801,34.29102 -97.45123,48.97116 -19.52982,7.29343 -38.71381,15.66556 -59.18913,20.00969 -22.73559,5.8659 -45.24284,12.79661 -68.61286,15.70387 -21.55366,3.69896 -43.52993,4.2965 -65.27959,6.22343 -20.03781,-1.71989 -40.44668,-0.64455 -60.01419,-5.9072 -15.55135,-2.88529 -31.17464,-6.79134 -45.69337,-12.78043 -6.14744,-4.12938 -7.00594,-7.99497 0.13018,-11.46182 1.03392,-0.84593 2.06784,-1.69187 3.10176,-2.5378 z"
     id="right-hand" />
  <path
     style="display:inline;mix-blend-mode:normal;fill:url(#linearGradient3)"
     d="m 673.90622,129.11608 c 6.8541,-5.78061 37.37172,-23.29564 19.62746,-3.01968 -23.52438,27.67421 33.32363,-18.77385 11.33896,7.17989 -13.29048,15.05066 1.80207,16.64607 12.83224,8.45804 -7.87516,26.96 28.02883,-14.36963 38.12368,-18.94965 10.63105,-9.11235 30.5446,-15.215 12.1657,0.4326 -19.07406,18.98033 -44.65983,30.10242 -62.56107,50.39574 15.78346,3.89324 34.35419,-22.23958 42.92036,-16.34482 -6.77936,7.69025 -41.62723,27.80958 -14.25122,18.65621 -7.47421,6.40589 -21.18058,23.01857 -3.27067,10.66518 7.0251,-10.63138 51.2261,-22.58286 30.24243,-4.16735 -8.05832,3.72385 -40.74372,22.8084 -14.23574,15.16108 26.80123,-2.90857 3.06256,9.50817 -7.70736,12.38014 11.10846,-0.93733 42.92248,-0.0754 18.36732,12.13301 -10.67986,3.55286 -41.30847,33.20107 -12.28411,21.68301 14.80793,-0.87101 44.7821,-20.86508 48.95261,-6.20304 -11.20409,17.64643 -58.62263,3.98269 -53.00399,27.18194 7.87599,7.50938 52.9288,0.7986 26.39597,12.8233 -28.29581,0.55615 -15.15837,31.80285 2.73292,37.68859 -5.98066,7.4451 -48.91995,2.28083 -35.8801,13.88689 13.09871,-3.29953 42.60358,15.25933 14.32792,12.86083 -10.77788,-9.61182 -55.40877,-9.05747 -31.99651,9.00155 15.84894,11.93264 61.86757,10.85358 59.32612,30.26588 -15.68546,2.53766 -48.98083,-25.15524 -53.06037,-11.46242 6.25147,9.98894 25.68121,20.37531 3.68363,14.12853 -2.25568,10.4134 37.03647,45.18491 6.02608,32.09349 -14.17382,-6.62912 -50.29575,-21.76109 -53.83411,-5.84668 5.76755,6.7847 31.61493,27.65462 7.03322,18.41081 -14.02467,-10.066 -18.70114,-4.11552 -6.27351,7.22943 13.95301,25.55568 -12.2534,4.77364 -16.66482,-6.86436 5.39125,11.55369 26.75949,31.83074 22.11192,38.18502 -7.23888,-9.03117 -25.21764,-24.48214 -15.76297,-2.20533 3.27404,10.91279 27.72855,48.43086 2.62206,26.41551 -6.42911,-8.40978 -26.45958,-23.38678 -11.85616,-2.76704 11.59994,28.45461 -14.05807,-10.63097 -22.5591,-15.03603 -15.19106,-4.34608 12.12338,25.10956 9.61281,35.23308 0.15716,18.66051 -17.1876,-16.92336 -20.23179,-23.83684 -12.3518,-17.41021 -5.4214,41.96598 -18.04506,12.48027 -8.66457,13.24382 -2.64243,46.77071 -17.61842,47.08545 -4.54007,-12.97154 -14.24761,-40.01819 -23.87234,-38.64057 1.99158,12.44088 13.57883,43.81349 0.63494,44.40371 -6.27314,-12.51325 0.21606,-47.39727 -13.76036,-45.41631 -4.77946,15.03991 -11.98274,-1.63471 -15.78929,15.05863 0.11009,-12.76506 -6.83984,-57.44251 -22.77898,-29.52183 -0.20818,10.9843 -14.84636,51.58878 -15.99118,24.83192 3.9694,-9.84778 2.89585,-40.27214 -9.77704,-18.2555 -6.63835,11.47326 -28.39911,48.61467 -19.79573,15.81272 7.04744,-12.60996 3.07442,-61.87478 -14.20036,-37.04644 -0.85154,14.01423 -32.62912,35.81643 -17.28803,11.95258 12.30944,-15.97249 0.30329,-27.99033 -11.26136,-8.54829 -7.46395,11.96796 -41.10122,30.68578 -23.01124,3.64134 6.77531,-10.33327 16.29086,-50.10109 -3.98936,-26.40839 9.19104,-40.07386 -38.30631,2.32993 -45.81534,-6.15357 9.45977,-11.04982 44.06978,-25.60986 34.7554,-36.74655 -18.3221,2.71748 -34.05472,34.67649 -45.80682,31.1646 6.05139,-11.13173 43.18165,-40.32886 17.68283,-42.47836 -12.34049,9.81002 -32.53662,5.00122 -14.6951,-10.45539 13.20981,-14.49961 1.92495,-18.06792 -8.69742,-5.99576 -33.74551,6.41887 38.2157,-28.26035 7.44984,-19.37333 -11.99852,6.63079 -44.93845,4.94571 -21.40962,-10.7907 -18.93369,-5.93722 44.01072,-31.07921 9.72002,-23.73844 -10.20493,6.94881 -42.95755,16.64064 -40.90458,4.92071 16.52808,-10.13166 53.81202,-11.55141 57.77987,-25.61288 -15.66079,-7.71472 -48.22924,1.98515 -54.63855,-2.92652 11.88343,-6.17147 42.50361,-10.70528 39.2982,-21.55604 -27.65414,-4.71754 41.41135,-9.82192 9.5891,-12.72483 -10.97791,3.73468 -47.78012,-10.69193 -19.00334,-10.05837 11.95451,-0.87157 43.20521,8.12283 44.04113,1.97663 -12.17711,-10.08959 -49.54715,-3.53876 -47.01256,-22.40822 21.88158,2.73464 33.85005,-28.35426 4.87325,-27.26746 -29.8779,-11.82521 20.30803,3.26349 26.83193,-10.45477 20.49516,-6.17364 -7.29121,-33.00111 -0.98405,-24.20528 17.9256,11.0103 -26.70478,-30.87328 -3.46041,-14.48333 7.33032,7.39301 35.89999,21.38254 17.83213,0.72092 -14.89746,1.71182 -32.27021,-41.74295 -9.47086,-19.98227 22.5843,23.49483 -17.29127,-52.320065 13.04706,-21.37154 6.87212,11.41745 44.95147,18.20242 24.6205,-2.49413 -13.2799,-19.32177 5.38267,-8.56681 11.5182,1.13924 0.73527,-17.63442 -30.77744,-36.172385 -17.41195,-50.62908 9.86015,11.384485 22.40569,52.77216 34.28922,40.64973 -3.02396,-11.77377 -18.4701,-46.899832 -1.52014,-18.570965 21.51901,17.855035 -11.85689,-35.895613 11.12043,-9.21695 11.49643,16.322405 30.22006,18.924315 20.5003,-3.40971 10.81827,8.89906 26.43572,16.10571 15.82394,-5.58008 -3.64074,-10.831733 5.20432,-42.177009 12.32402,-16.217704 13.2262,4.274636 -9.30244,-33.978787 2.99802,-43.791468 17.71157,15.046982 1.51573,56.266701 16.20352,64.238032 5.74568,-12.296122 -0.3838,-53.430843 12.03755,-47.926474 2.2427,10.610689 15.36286,28.965058 13.05008,6.507786 0.91038,11.085357 9.04092,54.041228 13.78158,21.005422 6.54,-23.908378 11.80781,4.741185 14.86357,13.274035 -3.99877,-16.437884 11.28073,-54.477141 9.04614,-19.04101 -1.95972,10.860945 0.35473,37.140031 3.13301,12.573105 -3.58349,-11.955566 11.62308,-52.770181 10.82293,-21.927039 -3.58256,22.584551 6.94869,5.335025 6.025,5.363704 1.80279,25.981641 16.15729,-33.127887 13.67503,2.053325 1.4615,10.777368 -1.73622,56.457511 14.49565,36.215286 3.12161,-11.22227 11.13245,-36.435257 11.43287,-9.97297 7.03903,25.058525 17.05455,-21.117631 22.71152,-28.596346 -1.70255,-14.242001 23.53341,-24.333435 13.64049,-4.566879 -5.25694,11.524551 -27.8521,42.747515 -14.89726,40.596325 -3.42947,11.933895 0.4891,30.702815 7.21091,9.22258 1.47514,-11.25715 19.41478,-40.463612 21.27431,-30.308764 -5.27806,8.567001 -21.08076,37.056959 1.56953,23.097504 7.49431,-6.63247 38.89296,-21.231134 20.18582,-0.83724 -7.78779,13.036765 -11.72362,28.354885 -21.99287,39.875695 z"
     id="front-body" />
  <path
     style="display:inline;fill:#ffffff;fill-opacity:1"
     d="m 523.83958,254.97353 c 11.54107,3.71874 22.75711,9.34087 30.13611,19.30242 10.83431,13.34871 18.65045,30.13163 19.30249,47.45173 -0.62702,14.2939 -5.05968,29.0125 -13.81996,40.40319 -12.86299,13.81482 -34.56971,20.74167 -52.36629,12.81284 -19.64412,-5.23061 -36.89529,-21.21099 -39.91533,-41.85013 -2.49624,-13.51718 -1.9931,-27.6056 0.41288,-41.06019 5.21894,-14.79146 16.08737,-27.99578 29.84816,-35.52063 8.41683,-4.5481 17.49722,-2.60181 26.40194,-1.53923 z"
     id="path5" />
  <path
     style="display:inline;fill:#ffffff;fill-opacity:1"
     d="m 388.5718,203.27883 c 5.23148,2.0522 11.35883,2.24654 15.96764,5.62871 3.29323,3.29323 6.58647,6.58647 9.8797,9.8797 3.12723,13.87976 6.45797,27.7136 9.45835,41.62188 -0.3199,6.67287 -0.84647,13.3832 -2.88768,19.78094 -2.28069,9.12663 -5.75221,17.94715 -9.78173,26.42724 -2.57585,5.21061 -6.03606,10.55473 -12.35734,11.28258 -4.71752,2.37283 -10.05817,1.92135 -15.16499,2.37434 -6.00947,0.27431 -7.82772,-8.09479 -11.99405,-11.48639 -4.27484,-4.86757 -5.31596,-11.42717 -7.73961,-17.25099 -1.25692,-4.52863 -3.98888,-8.82919 -3.82286,-13.61525 -0.0457,-13.16333 0.0231,-26.3432 1.02954,-39.47515 2.17048,-6.37756 4.42992,-12.72715 6.9238,-18.98627 5.06806,-4.82382 9.47364,-10.62487 16.01891,-13.57365 1.49011,-0.86923 2.98021,-1.73846 4.47032,-2.60769 z"
     id="path4" />
  <path
     style="fill:#000000;fill-opacity:1"
     d="m 397.18758,259.28142 c -3.44631,-1.43596 -6.89263,-2.87193 -10.33894,-4.30789 -2.29754,2.58473 -4.59509,5.16947 -6.89263,7.7542 -0.42643,6.49795 -1.12798,12.98579 -2.35444,19.3833 -0.50856,4.47239 -0.13894,8.9759 -0.18785,13.46261 1.43059,2.84068 1.89556,6.15377 3.87598,8.71215 1.96742,0.6718 3.89727,2.00538 5.88702,2.28404 2.76259,-0.82878 5.52518,-1.65756 8.28777,-2.48634 2.01035,-4.30789 4.0207,-8.61578 6.03105,-12.92367 -0.1366,-5.45443 0.28282,-10.93846 -0.22749,-16.37298 -1.36017,-5.16847 -2.72012,-10.337 -4.08047,-15.50542 z"
     id="left-eye" />
  <path
     style="fill:#000000;fill-opacity:1"
     d="m 497.99224,296.32929 c 3.15959,7.63447 6.74368,15.20434 7.8607,23.47802 1.656,7.68299 2.39959,15.60839 2.27466,23.44032 -1.45036,5.43182 -3.78106,12.72318 -10.80828,12.15847 -5.42403,0.88625 -10.41858,-4.11345 -12.48273,-8.67602 -2.76948,-8.53731 -5.59526,-17.32824 -5.72553,-26.37827 0.68291,-7.76777 0.10996,-16.16484 3.96601,-23.19505 3.90415,-3.76332 10.08858,-0.12609 14.91517,-0.82747 z"
     id="right-eye" />
  <path
     style="fill:#000000;fill-opacity:1;stroke:#000000;stroke-opacity:1"
     d="m 210.2251,389.43338 c -11.51424,6.25281 -23.29524,12.09247 -34.06694,19.60652 -7.69312,4.97381 -15.73705,9.56609 -22.31659,16.02951 -5.41655,5.27265 -12.18829,8.70253 -18.57378,12.61235 2.18941,3.50514 2.64928,8.0789 5.79274,10.95901 5.0147,-1.70607 10.16245,-3.40404 14.29535,-6.85177 14.87194,-9.99246 30.03704,-19.57187 44.39727,-30.30222 4.68044,-3.62785 10.73948,-4.91038 15.28499,-8.69717 1.77944,-1.92578 3.68565,-3.73306 5.5259,-5.60203 -3.44631,-2.58473 -6.89263,-5.16947 -10.33894,-7.7542 z"
     id="left-work-hand" />
  <path
     style="fill:url(#linearGradient14)"
     d="m 87.019402,433.32023 43.078918,-31.87839 33.60155,43.94049 51.69469,20.67788 -30.15523,57.72574 3.44631,61.17206 -75.81889,-6.03105 L 67.203102,611.66693 41.355757,548.77172 0,515.17017 34.46313,478.98388 29.293661,417.81182 Z"
     id="star-back" />
  <path
     style="fill:#000000;fill-opacity:1;stroke:#000000;stroke-opacity:1"
     d="m 330.84605,534.17853 c 5.45666,-0.86158 10.91333,-1.72316 16.36999,-2.58474 5.37585,3.84561 12.08453,9.60177 2.90064,13.24145 -19.75385,1.49631 -38.94078,6.95783 -58.54587,9.44375 -26.93877,1.18559 -53.8977,3.34132 -80.87958,1.9347 -7.50165,-0.0389 -14.87319,-1.08828 -21.98054,-3.54492 -16.8701,-4.92869 -34.17991,-9.2144 -49.61095,-17.88754 -2.34657,-1.42744 3.40931,-4.0284 4.66516,-5.97759 3.42924,-5.68504 8.51605,-0.5216 13.00358,1.28354 8.94463,5.27962 19.41447,5.99497 29.31343,8.38157 15.01944,3.22083 30.50834,2.76652 45.74945,4.19976 17.4789,1.38777 35.03025,0.71798 52.51909,-0.15464 10.82537,-1.84887 21.71283,-3.58272 32.67505,-4.16163 4.70209,-1.06103 9.18581,-2.87629 13.82055,-4.17371 z"
     id="right-work-hand" />
  <path
     style="fill:url(#linearGradient12);stroke:#ff6600;stroke-opacity:1"
     d="m 63.568992,443.41382 30.14922,-44.3063 46.217238,30.39404 55.62231,2.46457 -9.42145,64.4425 23.43566,56.60979 -73.56332,19.32135 -32.30497,45.97242 L 58.552782,567.46645 8.426625,549.39075 29.021203,503.86034 3.958871,447.81907 Z"
     id="star-front" />
</svg>
