<?xml version="1.0" encoding="UTF-8" standalone="no"?>
<!-- Created with Inkscape (http://www.inkscape.org/) -->

<svg
   version="1.1"
   id="svg1"
   width="50.729912"
   height="45.765263"
   viewBox="0 0 50.729912 45.765262"
   sodipodi:docname="monster-3.svg"
   xmlns:inkscape="http://www.inkscape.org/namespaces/inkscape"
   xmlns:sodipodi="http://sodipodi.sourceforge.net/DTD/sodipodi-0.dtd"
   xmlns:xlink="http://www.w3.org/1999/xlink"
   xmlns="http://www.w3.org/2000/svg"
   xmlns:svg="http://www.w3.org/2000/svg">
  <sodipodi:namedview
     id="namedview1"
     pagecolor="#ffffff"
     bordercolor="#000000"
     borderopacity="0.25"
     inkscape:showpageshadow="2"
     inkscape:pageopacity="0.0"
     inkscape:pagecheckerboard="0"
     inkscape:deskcolor="#d1d1d1">
    <inkscape:page
       x="0"
       y="0"
       width="50.729912"
       height="45.765263"
       id="page2"
       margin="0"
       bleed="0" />
  </sodipodi:namedview>
  <defs
     id="defs1">
    <linearGradient
       id="linearGradient5">
      <stop
         style="stop-color:#000028;stop-opacity:0.9950372;"
         offset="0"
         id="stop4" />
      <stop
         style="stop-color:#0000d2;stop-opacity:1;"
         offset="1"
         id="stop5" />
    </linearGradient>
    <linearGradient
       id="linearGradient2">
      <stop
         style="stop-color:#0404ff;stop-opacity:0.9950372;"
         offset="0"
         id="stop2" />
      <stop
         style="stop-color:#0000ff;stop-opacity:0;"
         offset="1"
         id="stop3" />
    </linearGradient>
    <linearGradient
       xlink:href="#linearGradient2"
       id="linearGradient3"
       x1="160.32925"
       y1="363.03784"
       x2="588.90063"
       y2="363.03784"
       gradientUnits="userSpaceOnUse"
       gradientTransform="matrix(1.0289674,0,0,1,-8.4752403,0)" />
    <linearGradient
       xlink:href="#linearGradient5"
       id="linearGradient4"
       gradientUnits="userSpaceOnUse"
       x1="160.32925"
       y1="363.03784"
       x2="588.90063"
       y2="363.03784"
       gradientTransform="rotate(2.7387604,325.53374,293.23491)" />
  </defs>
  <g
     id="layer2"
     transform="matrix(0.11298147,0,0,0.11298147,-16.988462,-18.356189)">
    <path
       style="display:inline;fill:url(#linearGradient3);stroke:none;stroke-width:1.01438"
       d="m 347.16145,198.04398 c 4.76552,-8.82356 8.29264,-42.16765 14.69573,-18.56662 4.55452,16.74024 6.36174,6.33263 8.19712,-3.79663 1.21199,-20.61897 17.52229,28.1518 17.06267,-1.19742 6.10278,-19.61102 7.63873,38.04999 16.50057,11.18293 5.16751,-9.24202 11.76021,-20.20963 10.89796,-2.74858 3.28484,13.77452 16.30774,-26.9886 15.94654,-3.67545 0.13588,12.77435 1.27744,24.86536 13.36051,10.19945 9.06159,-5.83451 -7.43522,20.17082 7.18093,9.36707 13.12848,-8.73808 0.85587,23.94434 17.74699,8.73313 17.17562,-11.61121 1.75941,6.45504 7.26096,7.53498 12.33107,-5.3796 16.68266,-4.91074 10.74277,7.20573 9.61246,3.76805 44.76014,1.03452 18.79778,11.55154 -4.31174,8.98513 35.34823,0.94346 18.80101,16.47682 7.52853,5.91034 37.32471,1.42307 17.22392,15.32855 -18.81704,15.89576 47.49972,15.67286 18.11217,28.22609 4.79307,6.65348 31.26361,12.99337 11.39284,16.73965 7.90592,10.60409 29.63215,19.66118 6.22163,25.6934 5.94521,9.79326 32.76228,19.7524 7.00982,22.48781 1.97817,8.11568 -5.17298,20.0214 2.05059,24.21662 -13.88048,-1.58798 5.42155,12.73198 7.11475,19.03228 9.59914,8.77687 -2.90043,6.17279 -9.84342,6.43039 -4.86909,0.99334 -21.93934,-2.92493 -11.81489,4.1041 6.13811,6.90682 17.07208,11.88575 2.31781,13.35567 1.97215,10.8285 21.77872,31.72189 -2.92924,22.68616 -21.93887,-8.13697 -1.81847,22.14754 -2.26444,33.64449 -0.32206,5.28307 -22.19078,-16.19951 -14.69247,3.32467 5.37812,17.48815 -5.63152,6.1551 -13.61795,3.87782 7.82311,12.89077 -3.96503,7.03994 -8.15494,10.00189 -2.66308,10.92757 -5.32616,21.85513 -7.98924,32.78269 -5.7925,-7.47456 -13.12926,-26.9274 -14.18495,-7.47107 -8.30907,13.9518 -38.62376,4.12942 -37.97217,25.95736 -1.21696,2.5834 -24.96986,-16.2713 -37.05272,-7.49221 -8.68644,10.4862 -14.08921,6.42534 -21.86441,-0.53665 -12.257,22.04803 -43.81718,-24.93839 -53.20268,4.32281 -5.28241,23.69492 -12.87238,-22.94314 -20.54819,-1.00554 -7.53893,12.4143 -19.43394,-9.82677 -31.64625,-1.24742 -14.64517,-13.67385 -17.26029,6.40005 -24.4029,10.69708 -3.73002,-11.26453 -5.34327,-41.58503 -18.32756,-18.08825 -6.84901,2.99714 -6.69516,-20.4856 -14.07086,-3.53057 -10.31062,23.69899 -5.99986,-27.75576 -18.47118,-3.38679 -11.4491,7.76354 2.98895,-34.4884 -18.82591,-22.97425 -6.81885,12.80901 2.98543,-34.25532 -8.22902,-12.56932 -11.01373,11.90144 -7.68482,-25.82329 -23.94236,-13.34672 -0.4403,-11.88158 13.29073,-36.72105 -5.92965,-22.44914 -22.62586,14.79572 4.94655,-14.93545 1.57662,-26.38052 -8.55714,-2.48873 -26.7096,8.3585 -13.44107,-6.18573 13.71287,-13.66327 6.40174,-14.7795 -6.6613,-18.7879 5.72729,-8.70739 11.63669,-17.30128 17.43817,-25.96243 -11.3054,-0.61486 -22.55052,-4.68805 -7.77324,-12.90977 15.1978,-7.82863 9.07069,-20.7897 -6.96398,-17.97235 -7.73085,-8.19814 34.07802,-27.46458 8.86632,-31.55819 7.4376,-6.60313 30.74115,-12.634 8.20349,-19.50675 -13.10803,-9.19096 33.91827,-7.03026 8.083,-12.28968 -23.25862,-7.46838 39.28039,-4.78214 9.67654,-17.03818 -21.60198,-12.21662 19.22527,-5.80086 29.26104,-8.57501 4.20802,-2.19384 -7.35273,-11.93662 -9.70611,-17.27158 -10.86621,-12.98894 38.93944,7.29828 16.63854,-12.35641 -5.53323,-10.11471 12.70278,0.11606 18.49551,0.25954 24.35098,11.49184 -16.09387,-25.72686 0.65698,-19.30943 9.27818,3.09304 23.44071,10.11037 13.81333,-4.58803 -9.58266,-21.90376 34.30177,22.02434 18.51727,-5.40939 -15.13819,-28.27987 26.93846,21.03828 13.34863,-6.06985 -6.28542,-14.12985 -6.57149,-20.45908 6.41513,-9.53058 6.80152,4.4067 13.60305,8.8134 20.40457,13.2201 -3.79031,-11.39705 -13.35544,-29.98214 3.24703,-15.99588 7.08195,4.37982 14.16391,8.75965 21.24586,13.13947 z"
       id="shadow" />
    <path
       style="display:inline;fill:url(#linearGradient4);stroke:#000000"
       d="m 350.15032,199.1127 c 5.04768,-8.59218 10.06484,-41.7344 15.15286,-17.86298 3.62136,16.93261 5.87299,6.62081 8.13867,-3.41165 2.16173,-20.53913 15.6644,28.93333 16.6206,-0.40371 6.86125,-19.30523 5.59708,38.36125 15.48339,11.93639 5.45789,-8.9915 12.38173,-19.64044 10.71039,-2.23937 2.53053,13.91132 17.12011,-26.20049 15.65553,-2.93075 -0.47848,12.76608 0.0519,24.89628 12.4822,10.80823 9.07521,-5.40705 -8.18146,19.80251 6.52321,9.68983 13.16184,-8.11845 -0.31328,23.95674 16.81041,9.54727 17.22783,-10.80036 1.39949,6.52937 6.68845,7.86355 12.22729,-4.80083 16.42914,-4.13043 10.08411,7.69636 9.15113,4.21013 43.40094,3.11188 17.69576,12.41127 -4.6149,8.77463 34.26879,2.58384 17.46355,17.33106 7.02583,6.25319 36.16453,3.15469 15.98749,16.11087 -19.02595,15.0038 45.3609,17.8607 16.23347,29.03492 4.3349,6.86846 29.72793,14.43032 10.25959,17.24959 7.16791,10.9591 27.82561,21.01474 4.81189,25.95295 5.30331,10.05816 30.85979,21.25123 5.73019,22.78764 1.5325,8.19828 -5.97827,19.75832 0.83347,24.28419 -13.39843,-2.23073 4.65453,12.9692 5.99715,19.34092 8.89887,9.21261 -3.11051,6.03106 -9.86265,5.96596 -4.77406,0.76609 -21.15759,-3.94039 -11.66526,3.55076 5.62847,7.18397 16.00459,12.66495 1.61183,13.44805 1.39702,10.9077 19.62569,32.69699 -3.92752,22.52422 -20.9081,-9.14645 -2.82352,22.0378 -3.80579,33.5009 -0.56507,5.26208 -20.76739,-17.21148 -14.4214,2.6386 4.38513,17.71792 -5.76083,5.88656 -13.40476,3.24102 6.97825,13.23932 -4.18538,6.84777 -8.39422,9.61177 -3.1073,10.79143 -6.21458,21.58284 -9.32187,32.37425 -5.26586,-7.73501 -11.45844,-27.50633 -13.4129,-8.12125 -8.73258,13.55002 -37.69087,2.33113 -38.10132,24.1644 -1.3048,2.52394 -23.46172,-17.41224 -35.6105,-9.20427 -8.9333,10.07085 -13.98394,5.76374 -21.19897,-1.55135 -12.95183,21.45367 -41.3434,-26.94464 -51.85242,1.84729 -6.26004,23.42256 -11.39943,-23.51469 -19.89887,-1.95858 -7.9115,12.05003 -18.39572,-10.718 -30.6606,-2.71556 -13.56325,-14.3383 -17.06103,5.59122 -24.19995,9.55167 -3.08264,-11.42488 -3.19989,-41.78566 -16.92697,-18.91867 -6.79181,2.67567 -5.5204,-20.7731 -13.49043,-4.17995 -11.14129,23.19313 -4.49805,-28.00267 -17.76884,-4.24067 -11.48504,7.22301 4.54942,-34.3102 -17.17726,-23.82222 -7.23137,12.47773 4.53485,-34.07756 -7.38764,-12.93709 -11.26013,11.3764 -6.22605,-26.15066 -22.60402,-14.44329 0.14031,-11.88846 14.65643,-36.06192 -4.68347,-22.69886 -22.67076,13.72815 5.51545,-14.68869 2.791,-26.27717 -8.18782,-2.88325 -26.32741,7.10863 -12.75218,-6.80283 13.96445,-13.01087 6.9206,-14.46534 -5.56865,-19.07577 5.97576,-8.43149 12.12286,-16.74115 18.16842,-25.12299 -10.94519,-1.13915 -21.66664,-5.72989 -6.92891,-13.256 15.12715,-7.11395 9.79865,-20.34474 -5.90145,-18.27521 -7.1129,-8.54777 34.39315,-25.85073 10.1148,-31.11042 7.53548,-6.2502 30.44528,-11.19204 8.89551,-19.10351 -12.2853,-9.78917 33.26168,-5.44718 8.43371,-11.9003 -22.22119,-8.53991 38.35946,-2.95261 10.2075,-16.56937 -20.38612,-13.2058 18.93988,-4.90147 28.81453,-7.20642 4.18972,-1.99593 -6.56721,-12.26442 -8.59681,-17.70257 -9.9276,-13.4787 37.45127,9.09817 16.74208,-11.56966 -4.88802,-10.3601 12.32553,0.70581 17.9419,1.11812 23.08932,12.60951 -14.39366,-26.44482 1.5604,-19.25686 8.85888,3.52035 22.2717,11.18734 13.62835,-3.94134 -8.25564,-22.32373 32.24565,23.59206 18.2339,-4.54332 -13.34395,-28.95055 25.14493,22.26519 13.24803,-5.44305 -5.42632,-14.40558 -5.4016,-20.74087 6.6828,-9.2218 6.39194,4.71752 12.78388,9.43502 19.17582,14.15253 -3.13482,-11.56004 -11.53202,-30.56808 3.91634,-15.82683 6.66543,4.70369 13.33089,9.40738 19.99633,14.11106 z"
       id="body" />
    <path
       style="display:inline;fill:#ffffff;fill-opacity:1;stroke:#ffffff;stroke-opacity:1"
       d="m 400.84864,294.20957 c -9.44107,6.67694 -21.50848,10.92473 -26.59074,22.2288 -10.90091,14.71454 -11.1674,33.88328 -12.36533,51.4113 3.0849,10.44396 3.55834,22.23736 11.54934,30.53298 6.38529,9.35881 16.26595,15.66407 26.21331,20.65546 8.6593,2.87893 18.39753,5.1497 26.75296,-0.0664 10.27758,-4.07013 19.18441,-10.74538 28.71213,-16.21882 4.92474,-10.76619 14.34056,-20.47676 12.44423,-33.27131 0.53006,-17.18881 -3.03398,-34.72167 -12.21949,-49.42904 -5.24657,-9.87379 -14.91036,-17.05816 -23.97539,-23.08318 -9.72896,-3.37316 -20.39428,-5.56321 -30.52102,-2.75981 z"
       id="path5" />
    <path
       style="display:inline;fill:#ffffff;fill-opacity:1;stroke:#ffffff;stroke-opacity:1"
       d="m 287.54463,310.39586 c -9.17831,8.22157 -23.27366,11.42275 -28.7029,23.40904 -4.07261,9.11742 -7.90456,18.92021 -6.91733,29.10088 -1.989,11.57231 0.45425,23.96426 7.47276,33.47973 3.51118,11.01587 13.4063,18.66081 23.4628,23.40008 10.51628,3.08432 22.34826,7.94638 32.98269,2.63733 6.70181,-2.28129 13.90944,-4.19812 19.34635,-9.07945 4.33541,-4.8079 9.55224,-8.8871 13.3278,-14.15497 2.01671,-6.47216 4.37636,-12.98044 5.53206,-19.74024 1.48952,-6.73213 0.58547,-13.61168 0.39516,-20.37106 0.74113,-11.75039 -4.00157,-23.67697 -13.06088,-31.29968 -8.18715,-8.53699 -17.38383,-17.70978 -29.62732,-19.51543 -7.9722,-3.4461 -16.25562,1.24178 -24.21119,2.13377 z"
       id="path6" />
    <path
       style="fill:#000000;fill-opacity:1;stroke:#ffffff;stroke-opacity:1"
       d="m 389.42303,347.52911 c -2.63205,4.77265 -6.81869,8.77329 -8.12124,14.20962 -1.10012,4.70725 1.48189,9.72342 5.43888,12.27131 3.22526,2.11677 7.1606,2.81743 10.95831,2.80589 6.35978,1.02928 12.94753,-3.62067 14.47739,-9.80663 0.40391,-1.46599 0.27208,-3.00053 0.15375,-4.48212 0.50276,-6.09019 -3.60594,-12.02574 -9.14389,-14.34749 -4.47088,-1.39424 -9.19083,-0.32371 -13.7632,-0.65058 z"
       id="right-eye" />
    <path
       style="fill:#000000;fill-opacity:1;stroke:#ffffff;stroke-opacity:1"
       d="m 325.63001,345.62484 c -3.49116,1.90427 -6.98232,3.80854 -10.47348,5.71281 -0.83067,7.37652 -3.74673,15.6945 2.67637,21.54323 4.71202,4.98364 12.98217,4.9679 18.92286,2.45288 6.5287,-2.98611 10.28662,-11.13174 7.06325,-17.82232 -1.72637,-6.53966 -7.11693,-11.62583 -14.15836,-11.23906 -1.35113,-0.1615 -2.70522,-0.33102 -4.03064,-0.64754 z"
       id="left-eye" />
  </g>
  <path
     style="fill:none;stroke:#ffffff;stroke-width:0.6;stroke-dasharray:none;stroke-opacity:0.786913"
     d="m 22.274072,3.8431745 0.308778,-0.9704455 0.220556,-0.8822232 0.220556,-0.4411116 0.132333,-0.4411116 0.132334,-0.22055584 0.352889,0.39700044 0.220556,-0.264667 0.397,0.6175563 0.176445,0.7498897 0.176444,0.529334 0.04411,-1.0145567 0.132333,-0.5734451 0.132334,-0.4852228 0.308778,-0.26466696 0.08822,0.57344506 0.352889,0.1323335 0.573445,0.7940009 0.176445,0.264667 h 0.176445 l 0.132337,-0.5734451 -0.04411,-0.3970005 0.352889,-0.48522274 0.35289,0.39700044 0.308778,0.6175563 0.264667,1.2351125 0.264667,0.2205558 0.529333,-0.8822232 0.661668,-1.1468902 0.264667,-0.1764447 0.132333,0.5293339 0.264667,0.044111 0.04411,0.8381121 -0.08822,0.1323335 0.74989,-0.6175563 0.352889,-0.5293339 0.352889,-0.4411116 0.220556,0.4411116 0.176445,0.4852228 -0.08822,1.1468901 0.132333,0.3970005 0.132333,0.3087781 0.74989,-0.4411116 0.220556,-0.2205558 0.397,-0.2205558 0.176445,0.088222 -0.220556,0.4852228 0.220556,0.1764446 -0.220556,0.6616674 0.705779,-0.3970004 H 34.6252 l 0.176444,0.5734451 v 0.573445 l 0.176445,0.3970005 0.485223,-0.088222 0.529334,-0.3087782 0.573445,-0.3528892 0.397,-0.2205558 -0.08822,0.6175562 -0.220556,0.3087781 0.08822,0.3087781 1.235113,-0.2205558 0.441112,0.1323335 -0.176445,0.4411116 -0.04411,0.3528893 v 0.2205558 l 0.926334,0.2205558 1.235113,0.088222 0.529334,0.3087781 0.352889,0.088222 -1.191002,0.573445 0.573446,0.1764447 0.220555,0.2646669 -0.132333,0.1323335 1.102779,0.2205558 h 0.573445 l 0.308778,0.1764447 -0.176445,0.3970004 -0.264667,0.5293339 0.705779,0.2646673 0.74989,0.264667 h 0.397 l 0.705779,0.132333 0.176444,0.04411 v 0.397001 l -0.529334,0.441111 -0.264666,0.220556 0.220555,0.176445 v 0.264667 l -0.573445,0.573445 1.191002,0.441112 0.882223,0.264666 1.014556,0.35289 0.264667,0.352889 -0.529334,0.573445 -0.441111,0.176445 0.970445,0.749889 0.882224,0.397001 0.220555,0.485223 -0.926334,0.220555 1.985002,1.632113 0.04411,0.705779 -0.705778,0.485223 -0.485223,0.08822 0.882223,1.058668 0.529334,0.08822 -0.882223,0.352889 -0.705779,-0.176444 -0.970445,0.08822 1.543891,1.411557 0.485222,0.529334 -0.441111,0.529334 h -0.838112 v 0.661668 l -0.264667,1.102779 v 0.573445 l 0.441111,0.485222 h -0.529334 l -0.04411,0.441112 0.74989,0.926334 0.485223,0.705779 0.352889,0.617556 -0.220556,0.485223 -0.838112,0.220556 0.970446,2.69078 h -0.74989 l -0.794001,-0.132333 -0.705779,-0.220556 0.485223,1.14689 -0.08822,0.74989 h -0.352889 l 0.441111,1.720335 0.220556,0.573445 -0.661667,-0.176444 -0.705779,-0.35289 -0.485223,-0.132333 -0.04411,0.661667 0.220556,0.661668 0.04411,0.397 -0.573445,0.220556 -1.058668,-0.573445 0.264667,0.573445 -0.08822,0.220556 -0.441112,0.176445 0.04411,0.705778 -0.220555,0.04411 h -0.661668 l -0.705778,3.087781 -1.146891,-1.808557 -0.926334,2.955448 -0.661667,-1.058668 -0.926335,0.176444 -0.838112,0.573445 -1.235112,0.308779 -0.176445,0.882223 -1.323335,-0.485223 -0.617556,0.838112 V 45.0871 l -0.485223,-0.441111 -1.14689,-0.661668 -1.102779,-0.529333 -0.573445,0.397 -0.220556,-0.04411 -0.485222,-0.264667 -0.485223,0.617556 -0.705779,0.132334 -0.573445,-0.176445 -0.74989,-0.617556 -0.529333,0.529334 -1.058668,-0.04411 -1.058668,-0.529333 -1.235113,-0.661668 -0.397,0.882223 -0.08822,0.441112 -0.35289,0.132333 -0.397,-0.529334 -0.397001,-0.573445 -0.220555,0.661668 -0.308779,0.485223 h -0.352889 l -0.485223,-0.617557 -0.352889,0.08822 -0.74989,-0.441112 -0.352889,0.485223 -1.279223,-0.397001 -0.617557,-0.308778 -0.529334,-0.220556 -1.014556,0.220556 -0.08822,-0.08822 -0.970445,1.455668 -0.441112,-1.367446 -1.102779,1.191002 -0.308778,-2.24967 -0.264667,0.397001 -0.485223,-0.176445 -0.308778,-0.794001 -0.573445,0.74989 -0.352901,-0.22055 -0.441112,0.74989 L 10.364058,41.337661 10.05528,42.043439 9.5700574,42.263995 9.2612793,41.602328 9.1289458,41.646439 8.8642789,41.602328 8.6878342,40.499549 8.2467226,41.072994 7.805611,41.117105 7.6291664,40.499549 7.5850552,38.867436 H 7.3203883 l -0.4852228,0.485223 v -1.014557 h -0.264667 l -0.6175562,0.397 V 37.720546 L 5.5559419,37.676435 5.1148303,37.058878 4.497274,36.838323 4.0561624,35.779655 3.394495,36.088433 l 0.264667,-1.102779 -0.7498898,0.352889 0.4411116,-2.117336 -1.102779,0.661668 -0.5293339,-0.04411 0.6616674,-1.014557 -0.838112,0.397 -0.264667,-0.397 0.7940009,-1.102779 0.3970004,-1.323335 -1.102779,0.264667 H 1.0124924 L 1.6741598,29.780537 0.79193657,29.824648 0.92427005,29.162981 1.9829379,28.236646 0.83604773,27.751424 1.2330482,27.045645 0.48315845,26.736867 2.027049,24.795976 1.1448258,24.487198 1.0124924,24.134308 1.3653816,23.649086 1.0124924,23.340308 1.4977151,22.67864 2.2476048,22.193417 2.7328276,21.752306 2.3799383,21.53175 1.5859374,21.267083 1.0124924,21.443528 0.96838121,21.134749 1.2330482,20.605416 1.0124924,20.120193 2.9092722,18.046968 1.8064932,17.605857 2.9974946,17.120634 2.0711602,16.9883 4.0120512,15.973744 3.9238289,15.84141 3.4386062,15.620854 2.9092722,15.356188 2.7328276,15.267965 2.6887164,15.047409 3.394495,14.826854 3.0416057,14.606298 2.9974946,14.473964 3.7032731,13.94463 3.2621615,13.900519 3.9238289,13.415296 4.3208294,13.459408 3.659162,13.15063 3.8356066,12.841851 5.7323865,12.665407 4.9383856,12.180184 4.497274,12.003739 4.3649405,11.562628 5.1148303,11.297961 4.8060521,11.077405 4.9824968,10.680404 8.4672784,10.768627 7.9379445,10.327515 7.0116101,9.0482914 7.0557213,8.8277356 7.805611,8.7836245 7.5409441,8.4748463 7.7173887,8.1660682 9.7023909,8.386624 9.1289458,7.9014013 8.9966123,7.6367343 V 7.4161785 H 9.5700574 L 9.4377239,7.1956227 9.5259463,6.9309557 9.9229467,6.8427334 11.95206,7.6808455 10.80517,5.9163991 10.84928,5.6517321 h 0.529334 V 5.342954 l 0.308779,-0.044111 1.54389,0.5293339 -0.397,-0.4852227 -0.08822,-0.4852228 V 4.5930643 l 0.132334,-0.1764447 0.441111,0.264667 V 4.3725084 L 13.495951,4.240175 15.304509,5.2988428 14.863397,4.5930643 14.510508,4.0196192 14.289952,3.4020629 15.172175,3.7549522 V 3.4461741 L 15.34862,3.0932848 16.804288,4.6371754 15.966176,2.9168402 V 2.5639509 2.2110616 l 0.441112,0.088222 0.176444,-0.3528893 0.35289,0.1323335 2.382002,1.7644464 -0.397,-0.7940009 L 18.78929,2.608062 18.701068,2.2551728 18.656957,1.9022835 19.14218,2.2110616 19.450958,1.8140611 Z"
     id="path1" />
</svg>
