<?xml version="1.0" encoding="UTF-8" standalone="no"?>
<!-- Created with Inkscape (http://www.inkscape.org/) -->

<svg
   version="1.1"
   id="svg1"
   width="20.144205"
   height="16.136919"
   viewBox="0 0 20.144205 16.136919"
   xmlns="http://www.w3.org/2000/svg"
   xmlns:svg="http://www.w3.org/2000/svg">
  <defs
     id="defs1" />
  <g
     id="layer1"
     transform="translate(-1.5091149,-3.5896305)">
    <path
       style="display:inline;fill:#5a5a5a;fill-opacity:1"
       d="m 11.79123,7.1259289 c 0.09042,-0.4211061 0.183376,-1.0392882 0.497734,-0.7577578 0.06199,-0.1587409 0.09488,-1.1281484 0.325132,-0.5666251 0.120888,-0.2763281 0.483033,-1.3963834 0.282589,-0.4541491 -0.107148,0.4615813 -0.304027,1.8906493 0.07927,0.773371 0.277496,-0.6700633 0.554991,-1.3401267 0.832487,-2.0101901 -0.09663,0.5221295 -0.19326,1.0442591 -0.28989,1.5663886 0.161919,-0.4074541 0.590505,-0.5779081 0.290599,-0.023225 -0.234353,0.4900376 0.652211,-0.1611982 0.07722,0.5071395 -0.1935,0.3832775 -0.864521,1.5199405 -0.196363,0.6979886 0.721077,-0.9651438 0.92058,-2.1958385 1.465029,-3.2535691 -0.146944,1.2389675 -0.470965,2.4836997 -1.249248,3.4855516 -0.386631,0.6040456 0.23652,-0.179427 0.412602,-0.3685817 0.625936,-0.7199128 1.251871,-1.4398255 1.877807,-2.1597383 -0.196076,1.1082953 -1.324501,1.6936567 -1.742371,2.6802873 0.310132,-0.5093418 0.8196,-0.6966949 0.682663,-0.2450308 0.931733,-0.8156366 1.38536,-1.9939196 1.863734,-3.0984934 -0.154974,0.9616593 -0.384647,2.1033988 -1.081684,2.8891672 -0.397051,0.3827816 -0.347001,0.6680146 0.124926,0.2346294 0.813571,-0.7361956 0.04858,0.6060015 -0.381292,0.716427 -0.02376,0.3633981 0.583615,-0.1597994 0.769556,-0.295176 0.421383,-0.3403859 0.320351,-0.1966002 0.02394,0.1282588 -0.126603,0.1672691 -0.709018,0.78873 -0.463066,0.5847681 1.313786,-1.1202987 2.496627,-2.3809164 3.714233,-3.6020736 -1.005175,1.126631 -1.832438,2.4360698 -3.05962,3.3434426 0.41231,-0.1517445 1.481808,-0.6671435 0.652912,0.033294 -0.348797,0.2140822 -1.358371,0.88131 -0.318726,0.5829372 0.756897,-0.1603691 1.723077,-1.3073154 2.109919,-1.3417149 -0.21838,0.642069 -1.318674,0.9028935 -1.159633,1.5781694 0.603241,0.096994 1.658684,-0.5713736 1.8944,-0.471961 -0.719422,0.6647012 1.858537,-0.4139847 0.827826,0.2524357 -0.955008,0.5114907 -2.085492,0.43144 -3.075581,0.750682 -0.130837,0.296397 0.735059,0.013421 1.008659,0.070069 0.694726,-0.013551 -0.658362,0.3832648 -0.91145,0.3176655 -0.698519,0.2877451 0.799674,0.2061411 1.098658,0.1084193 0.372686,0.1486054 -1.850394,0.6173742 -0.589425,0.7261132 0.421144,-0.04685 1.91808,0.01598 0.732318,0.225108 -0.633419,0.271152 -1.08947,0.313846 -1.762087,0.166491 0.483775,0.640138 2.041046,0.80656 2.229877,0.992434 -0.629012,0.103358 -1.775219,-0.128439 -2.087902,0.132953 0.337821,0.381736 1.363672,0.362608 1.44137,0.725534 -0.480538,-0.133761 -1.613317,-0.358665 -0.673256,0.232826 0.365295,0.249118 1.097105,0.782008 0.285655,0.365915 -0.16568,-0.05378 -0.781603,-0.391897 -0.664026,-0.266802 0.411253,0.349863 0.822505,0.699726 1.233757,1.049589 -1.025051,-0.174602 -1.648752,-1.123817 -2.510228,-1.613347 0.739669,0.833991 1.671842,1.4738 2.410464,2.302457 -0.02163,0.167574 -0.499036,-0.322439 -0.710202,-0.428325 -0.488635,-0.443261 0.619807,0.890205 -0.151738,0.167227 -0.311595,-0.248552 -1.165606,-0.92573 -1.263243,-0.761101 0.311916,0.370249 1.351115,1.009114 1.211505,1.218304 -0.574851,-0.17043 -1.545964,-0.868104 -1.735925,-0.992253 0.823263,0.745543 1.520732,1.619625 2.365882,2.342113 -0.984372,-0.537971 -1.825369,-1.290218 -2.749758,-1.918261 0.2232,0.233864 1.079476,1.253077 0.292962,0.58311 -0.380557,-0.200258 -1.204681,-0.861894 -1.308314,-0.792859 0.777146,0.905529 1.63137,1.763346 2.220913,2.8109 -0.622993,-0.498683 -1.466803,-1.540373 -1.914188,-1.743851 0.491028,0.928528 1.256121,1.672908 1.773304,2.584704 -0.816832,-0.325022 -1.003767,-1.417819 -1.73404,-1.907186 -0.163213,-0.383973 -1.117605,-1.218961 -0.689275,-0.272104 0.224312,0.431286 0.25662,0.939457 -0.147491,0.272058 -0.350203,-0.376848 -0.995122,-1.482526 -1.064566,-1.491505 0.574563,1.318395 1.105807,2.655034 1.637187,3.991242 -0.566559,-0.815061 -1.380682,-1.448494 -1.955253,-2.188562 0.01735,-0.04985 0.46409,1.148123 0.66622,1.528531 0.132884,0.301296 0.440376,0.855261 0.01749,0.277422 -0.818809,-0.804596 -1.289274,-1.843637 -1.534273,-2.946992 -0.04644,0.727273 0.238421,1.910623 0.441504,2.775341 0.1783,0.42472 0.02426,0.683093 -0.150473,0.14735 -0.375636,-0.741524 -0.09438,1.058544 -0.236789,1.342037 -0.298343,-1.154614 -0.20712,-2.392125 -0.585579,-3.520629 -0.341369,-0.216325 0.327457,1.397044 -0.516388,1.353154 -0.217049,0.286607 -0.395891,1.833653 -0.432539,0.704278 -0.03006,-0.461878 0.02759,-1.79622 -0.08114,-1.732131 -0.225082,0.933691 -0.516723,1.87415 -0.394216,2.847863 C 10.078446,19.965823 9.3830107,18.805174 9.7043726,18.428235 9.7441598,17.797404 10.032775,16.584559 9.988104,16.322912 9.5657721,17.426814 9.3112193,18.588343 8.8556934,19.680316 8.6550011,18.608965 9.3489801,17.660403 9.5089508,16.636269 9.0840978,17.604371 8.4488174,18.462585 7.905725,19.367153 8.2309975,18.641912 8.5562699,17.91667 8.8815424,17.191429 8.6265652,17.43622 8.371588,17.68101 8.1166108,17.925801 8.2329061,17.402583 9.0647035,16.324125 8.7609918,16.19802 8.5814076,16.588331 8.2293349,16.756906 7.9654379,16.712601 7.7353506,17.162453 7.2089709,18.07634 7.0850057,18.201265 7.1875916,17.863681 7.2901776,17.526098 7.3927635,17.188515 7.0873152,17.494726 6.7818668,17.800936 6.4764185,18.107147 6.4539335,17.413482 7.5761129,16.864472 7.5536361,16.497624 7.15545,16.600606 6.1567572,17.781882 6.7992557,16.826143 6.9876554,16.536579 7.6991531,15.522197 7.0250074,16.266216 6.7021322,16.613098 5.9609335,17.091974 6.5157518,16.326266 6.7349547,15.981786 7.6697788,15.273672 7.1983241,15.106903 6.3822842,15.638505 5.9503207,16.564696 5.2608702,17.234199 4.9582581,17.562474 4.2564368,18.477147 4.2102537,18.430235 4.8878791,17.17574 5.6758834,15.952193 6.748167,14.99668 5.7752427,15.04956 4.7221424,16.503116 4.2816246,16.5343 4.5983846,15.751259 5.9436123,15.226204 6.1433953,14.746065 5.5833877,15.174507 4.1200456,15.661701 3.9524289,15.686386 4.6580022,15.280074 5.4779629,14.978 5.9804618,14.30385 5.6331959,14.440366 3.9215571,14.995179 4.9274712,14.33467 5.3491473,14.106547 5.4561368,13.728466 4.8797292,14.048099 4.1287396,14.275401 3.3777501,14.502703 2.6267605,14.730005 3.4455881,14.386595 4.2644157,14.043184 5.0832433,13.699774 4.197013,13.428686 3.3482728,14.345535 2.4561583,14.199188 1.7188319,13.642443 3.3493055,13.83058 3.677504,13.613072 c 0.5078014,-0.10624 1.158083,-0.499384 1.4978789,-0.610947 -0.4012924,0.167922 -1.6271472,-0.01434 -0.5840067,-0.205827 0.3373498,-0.102485 0.6746995,-0.20497 1.0120493,-0.307455 -1.1022063,0.06941 -2.1477862,-0.289817 -3.1796291,-0.59299 -0.174911,-0.112679 1.1212389,-0.07628 1.435347,0.02486 0.5789293,0.105887 1.4975665,0.152045 1.79557,-0.419875 C 4.9491798,11.223873 4.0311698,11.492238 3.3811828,11.21323 3.8108401,11.108807 4.9491279,11.20873 4.931126,11.014938 3.9669816,10.870544 2.9695154,10.922287 2.0422994,10.569062 1.6884999,10.47712 1.1609468,10.358785 1.8322656,10.447003 3.1584748,10.539722 4.5166258,10.578814 5.8298733,10.47791 5.6311593,10.005801 4.2386072,9.9057995 4.2327719,9.8262401 4.8029507,9.7918918 6.0623478,10.053964 6.195354,9.9033657 5.6408572,9.6564398 4.5626676,9.3584066 4.3275304,9.1410066 4.9045298,9.3439104 5.150449,9.1787124 4.6338277,8.8145276 4.3642836,8.5432301 3.8768706,8.0943135 4.5401055,8.6039565 5.0004384,8.9529095 6.1192564,9.5171018 6.3642615,9.2907672 6.0244953,8.8379564 4.7639734,8.4560645 4.7723544,8.3578302 5.7367403,8.3578121 3.1962559,6.9012402 4.5072098,7.5597998 5.2913761,7.896777 6.386756,9.0174748 7.0412282,8.7102757 6.4140747,8.1067493 5.751161,7.5371579 5.10821,6.9482794 5.851451,7.3186158 6.8409097,8.1877186 7.3232676,8.442133 6.5819253,7.9199479 6.1427052,7.1174196 5.4534775,6.5375565 5.1025191,6.252256 4.9864236,5.9212096 5.4691957,6.3294374 5.8200472,6.5536792 6.8877409,7.4730763 6.0819966,6.6727381 5.8065408,6.3786109 5.2644304,5.4895965 5.576307,5.3741805 6.2286786,6.2608816 6.9679525,7.078609 7.7130677,7.8873203 7.4783793,7.5757425 7.2436909,7.2641647 7.0090025,6.9525869 7.5896913,7.2965934 7.9736352,7.8917327 8.563859,8.220546 8.0856091,7.4937238 6.766162,6.2208012 6.6958198,5.9425607 7.4551443,6.5373874 8.1843858,7.169186 8.9315198,7.7789705 8.4773043,7.3724495 7.6502893,6.1976086 7.9194808,5.9665864 8.4607873,6.4101224 8.8796344,7.3492781 9.4088447,7.5779656 9.2853484,6.9426561 8.7526028,6.5173028 8.4474867,5.9663431 8.2090955,5.6035418 7.9889015,5.3992841 8.5519203,5.7481999 9.029142,5.7848807 8.4976189,4.4087649 8.9986706,5.2070726 9.2940008,5.6781438 9.591266,7.0302933 9.7561851,5.9970477 c 0.1048586,0.394176 0.2097173,0.7883521 0.3145759,1.1825281 0.122965,-0.5638086 0.245929,-1.1276173 0.368894,-1.6914259 0.09482,0.3424353 0.07121,2.0450867 0.477512,0.9864219 0.5228,-0.6798447 0.464637,-2.4015906 0.767233,-2.6040881 0.245092,0.8254219 0.0043,1.6808003 -0.149715,2.4985034 0.357584,-0.9272611 0.642756,-1.8865398 1.082691,-2.7793566 -0.01993,1.1895196 -0.715763,2.2472023 -0.84828,3.384524 l 0.02215,0.1517744 z"
       id="shadow-body" />
    <path
       style="display:inline;fill:#000000"
       d="m 13.341048,7.8685561 c 0.187347,-0.2662293 0.374693,-0.5324587 0.56204,-0.798688 -0.02493,0.9860046 0.64908,-0.9228367 0.678188,-0.1465763 C 14.792634,6.709104 15.529132,5.7904867 15.00747,6.5989803 14.744001,6.9912491 14.049445,8.258661 14.804978,7.351677 15.303035,6.8238854 15.801092,6.2960937 16.299149,5.7683021 16.023059,6.221878 15.74697,6.6754539 15.47088,7.1290298 c 0.295974,-0.3228709 0.757578,-0.3301631 0.28,0.081501 -0.394208,0.3745962 0.666652,0.081562 -0.108077,0.5013084 -0.317157,0.289326 -1.349309,1.1132522 -0.432243,0.5827437 1.017311,-0.6454043 1.641684,-1.7245527 2.526842,-2.5193617 -0.578139,1.1052319 -1.323346,2.153172 -2.406943,2.8123515 -0.617385,0.4501128 0.251947,-0.066254 0.470268,-0.1725947 0.856365,-0.4582303 1.71273,-0.9164606 2.569095,-1.3746909 -0.577733,0.9659342 -1.84045,1.1116538 -2.582207,1.8849324 0.470757,-0.3653495 1.013754,-0.3594165 0.725251,0.013822 1.161088,-0.4305119 2.004189,-1.3704668 2.844335,-2.2324765 -0.486802,0.8428368 -1.107035,1.8280798 -2.037453,2.3142451 -0.506059,0.215827 -0.564634,0.5020659 0.03179,0.2646721 1.022259,-0.3986477 -0.169904,0.5835329 -0.610987,0.5337743 -0.152256,0.3311305 0.601393,0.058766 0.823025,-0.00167 0.513686,-0.167656 0.372153,-0.070845 -0.02174,0.1278241 -0.266323,0.1458434 -0.532646,0.2916874 -0.798969,0.4375304 1.683469,-0.5860122 3.287385,-1.3694463 4.910453,-2.1002533 -1.340053,0.6951677 -2.578958,1.6242765 -4.048351,2.0358323 0.439439,0.0051 1.621168,-0.09601 0.597641,0.263552 -0.401932,0.076 -1.583028,0.340147 -0.505501,0.431393 0.766232,0.118518 2.069045,-0.605913 2.449867,-0.503731 -0.432762,0.522627 -1.552974,0.375146 -1.645906,1.062551 0.529609,0.305519 1.753224,0.05678 1.939117,0.233051 -0.908935,0.365508 1.8833,0.274686 0.683451,0.530676 -1.0745,0.138243 -2.102493,-0.338721 -3.141375,-0.392841 -0.27444,0.266946 1.98988,0.549073 0.671232,0.560242 -0.343637,-0.09672 -1.489063,-0.335302 -0.673901,0.0746 0.273274,0.123568 1.636376,0.347788 0.642392,0.377379 -0.35715,-0.104819 -1.340587,0.05851 -0.508395,0.345788 0.410079,0.105987 1.787278,0.697528 0.604737,0.47113 -0.688511,0.02761 -1.129662,-0.09385 -1.705979,-0.471433 0.417261,0.829675 1.228183,1.321031 1.978674,1.815039 -0.744033,-0.185864 -1.647241,-0.758698 -2.283692,-0.729875 0.160715,0.359189 1.344274,1.040418 1.040408,1.158689 -0.260854,-0.219619 -1.278721,-0.864695 -0.705216,-0.114394 0.248424,0.410907 0.875937,1.307615 0.180562,0.550356 -0.120874,-0.08938 -0.636971,-0.705459 -0.46639,-0.406431 0.251759,0.45856 0.503517,0.917121 0.755276,1.375681 -0.895802,-0.527938 -1.141052,-1.636897 -1.771877,-2.400982 0.394486,1.042544 1.037908,1.97213 1.433387,3.009287 -0.07897,0.15032 -0.351173,-0.47802 -0.510553,-0.651722 -0.299941,-0.590261 0.261786,1.051021 -0.201947,0.101332 -0.20279,-0.343189 -0.759963,-1.279955 -0.909815,-1.160882 0.159764,0.457001 0.903632,1.423825 0.698726,1.569645 -0.47658,-0.363827 -1.135877,-1.361388 -1.269258,-1.544987 0.504084,0.989693 0.844955,2.054714 1.377683,3.030656 -0.728478,-0.853013 -1.246818,-1.855194 -1.887166,-2.771055 0.125297,0.298013 0.562874,1.555048 0.06622,0.649112 -0.286888,-0.327182 -0.817411,-1.230931 -0.940569,-1.206497 0.404089,1.122787 0.897149,2.228421 1.075391,3.417183 -0.404737,-0.687704 -0.822673,-1.961316 -1.168329,-2.310715 0.128331,1.042254 0.578591,2.010238 0.737445,3.046233 -0.647727,-0.594234 -0.433606,-1.682084 -0.941919,-2.399201 -0.01594,-0.416864 -0.61073,-1.536919 -0.547356,-0.499621 0.05616,0.482853 -0.09442,0.969418 -0.234625,0.201844 -0.193196,-0.476815 -0.402477,-1.739568 -0.464202,-1.772708 0.06782,1.436477 0.08875,2.874587 0.109869,4.312345 -0.242071,-0.962179 -0.773298,-1.845335 -1.048543,-2.740676 0.03399,-0.04092 0.02521,1.238114 0.07876,1.665427 0.01697,0.328829 0.107229,0.955993 -0.08235,0.265517 -0.478937,-1.043274 -0.548933,-2.181697 -0.385288,-3.300012 -0.302149,0.662716 -0.456875,1.870121 -0.574856,2.750257 0.01544,0.459533 -0.2201569,0.648232 -0.1930559,0.08493 -0.08707,-0.827519 -0.4649263,0.955452 -0.6988722,1.16967 C 9.4017425,18.257737 9.9161353,17.116469 9.9837421,15.902023 9.6652642,15.617468 9.7976278,17.5051 9.0059652,16.997618 8.8061529,17.296136 7.9144426,18.55635 8.3456852,17.556895 8.4759288,17.063973 8.9821904,16.012784 8.8965037,15.864721 8.5472352,16.46394 8.0858216,16.999905 7.7889833,17.62415 7.6730462,17.987761 7.2884765,19.285973 7.1429488,18.291752 7.2941384,17.360145 8.129874,16.663265 8.4048252,15.795667 7.6071116,16.682893 6.9537959,17.691156 6.1307371,18.556631 6.3242948,17.484042 7.3103697,16.844555 7.8242231,15.944422 7.0826442,16.697931 6.1836036,17.273999 5.3541657,17.926107 5.9162054,17.364067 6.4782451,16.802028 7.0402848,16.239988 6.7148934,16.378033 6.389502,16.516077 6.0641106,16.654122 6.3590702,16.206423 7.5197207,15.494959 7.2812741,15.268553 6.9744815,15.569412 6.5855097,15.602059 6.3547597,15.466378 5.9794591,15.804999 5.1626741,16.471543 5.0019305,16.544588 5.2179457,16.265568 5.4339608,15.986549 5.649976,15.707529 5.2555622,15.885015 4.8611483,16.062502 4.4667345,16.239988 4.692857,15.583731 5.9361838,15.469985 6.0464188,15.119041 5.6382648,15.073221 4.2841894,15.822257 5.223556,15.158191 5.5025899,14.954628 6.5294725,14.25922 5.634457,14.71473 5.2094062,14.923908 4.3461873,15.107971 5.1370679,14.589752 c 0.3275022,-0.24403 1.4527985,-0.573021 1.0720216,-0.896754 -0.9517297,0.206195 -1.6848356,0.918158 -2.5672904,1.29842 -0.399756,0.199191 -1.381277,0.804372 -1.407879,0.744178 1.0796598,-0.931271 2.2514585,-1.794339 3.5935424,-2.305805 -0.928069,-0.296724 -2.4294244,0.686912 -2.852236,0.559367 0.5748707,-0.619115 2.0181231,-0.631047 2.3764406,-1.008807 -0.6759089,0.201157 -2.2169428,0.135801 -2.3823568,0.09923 0.804017,-0.128562 1.677605,-0.119447 2.3872929,-0.570303 C 4.8929965,12.434548 4.2316793,12.566318 3.8929261,12.293046 4.197864,12.236006 5.4706513,11.848156 4.4741299,11.88234 3.8172828,11.820918 2.5872911,11.780145 2.2733656,11.707338 3.0932324,11.68001 3.9130993,11.652682 4.7329661,11.625354 4.001318,11.056689 2.882035,11.611402 2.100391,11.157498 c -0.4919529,-0.782571 0.9653572,-0.02724 1.349277,-0.113429 0.5126574,0.08148 1.2596594,-0.05456 1.617736,-0.03792 -0.5266079,-0.0159 -1.5229774,-0.617698 -0.4252418,-0.402512 0.4266884,0.0803 1.3523441,0.0906 0.4183249,-0.162361 C 4.3667919,10.19902 3.0881914,9.1660813 2.9352465,8.9597955 3.9025309,9.2017898 4.6853962,10.038894 5.7270351,9.9573585 6.7337701,9.791352 5.1041275,9.314869 4.7506112,9.1127839 4.3636127,8.9661096 3.5120849,8.4871775 4.3817519,8.7917978 4.7331472,8.8990596 6.2013681,9.4116801 5.245664,8.8896788 4.4499416,8.5367482 3.6658065,8.1609568 2.9892563,7.6062893 2.730057,7.4186666 2.2007615,7.0729497 2.8521342,7.428688 4.0585455,7.9872302 5.3138693,8.506914 6.5770498,8.8800222 6.5595924,8.3681639 5.2935043,7.7791277 5.3164334,7.7026998 5.8614966,7.8734718 6.945317,8.5665787 7.1231064,8.473089 6.6927553,8.0451116 5.7908043,7.3823341 5.6487524,7.0960709 6.1147498,7.4899186 6.4048961,7.4247241 6.051562,6.9006458 5.8961325,6.5510459 5.6003307,5.9580044 6.0385447,6.6697126 6.3446447,7.1595749 7.189052,8.084748 7.4988026,7.9606168 7.3424685,7.4164529 6.300662,6.6114672 6.3430484,6.5223296 7.2445539,6.8659811 5.3893546,4.6016217 6.3793499,5.6822339 6.9925132,6.2763258 7.6164729,7.7125512 8.3382343,7.6592976 7.9669168,6.8720216 7.5499706,6.1037743 7.1586112,5.3245868 7.721508,5.9352972 8.3366275,7.0990274 8.697215,7.5089577 8.1901929,6.7571239 8.0652454,5.8508114 7.6274405,5.0636234 7.4009587,4.6721335 7.4102448,4.3213734 7.7161698,4.8746789 7.9640518,5.2093584 8.6354363,6.448184 8.1667148,5.4136155 8.0131326,5.0404986 7.8227354,4.0169409 8.1560344,4.0197519 8.4503593,5.0806181 8.8501743,6.1080336 9.2588649,7.1290301 9.1504011,6.754337 9.0419372,6.3796438 8.9334734,6.0049507 9.3541035,6.532692 9.5004995,7.2267549 9.9354343,7.7433325 9.747106,6.893856 8.9669361,5.2346792 9.0001757,4.9495931 9.49816,5.7756823 9.9548637,6.6256258 10.436141,7.4613516 10.156488,6.9195804 9.8014611,5.5290727 10.135154,5.4074018 c 0.348073,0.6073027 0.405238,1.6329581 0.818447,2.0359255 0.111155,-0.6368495 -0.235454,-1.2232079 -0.324308,-1.8459207 -0.09334,-0.4233914 -0.227875,-0.6960279 0.174593,-0.1691151 0.432943,0.2043886 0.425915,-1.2708814 0.610131,-0.3466331 0.07551,0.6661862 -0.04247,1.7957594 0.425048,1.057737 -0.08303,0.4038892 -0.218354,1.5714986 0.236134,0.6141743 0.195162,-0.2988414 0.390323,-0.5976827 0.585485,-0.8965241 -0.118324,0.5028776 -0.236648,1.0057553 -0.354972,1.5086329 0.821371,-0.6140496 1.345374,-1.4901268 1.855805,-2.3561595 0.498671,-0.9738139 0.08872,0.7795222 -0.176089,1.0481071 -0.148314,0.3216608 -0.94638,1.439522 -0.306575,0.6581697 0.556033,-0.6260924 1.073836,-1.2918216 1.692578,-1.858201 -0.441887,1.1045423 -1.468433,1.8454282 -1.996957,2.8611178 l -0.03342,0.1498436 z"
       id="body" />
    <path
       style="fill:#ffffff;fill-opacity:1"
       d="m 12.424036,10.26462 c 0.468814,-0.17034 0.966084,-0.2958926 1.468611,-0.253802 0.300798,0.0168 0.631251,0.131189 0.785271,0.408942 0.103618,0.19767 0.303929,0.372758 0.276548,0.61578 0.0382,0.276453 0.05468,0.563845 -0.03551,0.832392 -0.05649,0.284016 -0.214446,0.529097 -0.353384,0.777725 -0.0656,0.122007 -0.129432,0.245007 -0.18918,0.370001 -0.245328,0.110426 -0.484431,0.262699 -0.761028,0.272138 -0.235322,0.05888 -0.463275,-0.0543 -0.665524,-0.161567 -0.180811,-0.07308 -0.375068,-0.141041 -0.499411,-0.300955 -0.139378,-0.136248 -0.277263,-0.291509 -0.31351,-0.48936 -0.0894,-0.212095 -0.121652,-0.445166 -0.09644,-0.673522 0.0035,-0.26444 0.01181,-0.529061 0.03653,-0.792467 0.09588,-0.212534 0.226001,-0.406776 0.347028,-0.605305 z"
       id="path4" />
    <path
       style="fill:#000000;fill-opacity:1"
       d="m 13.015657,11.68451 c 0.02958,0.118324 0.05916,0.236648 0.08874,0.354972 -0.06169,0.0677 -0.09039,0.166125 -0.174608,0.212081 -0.05373,0.01931 -0.112917,0.02123 -0.164117,0.04792 -0.06023,0.01458 -0.09681,-0.04634 -0.133897,-0.08199 -0.02696,-0.03385 -0.07332,-0.05959 -0.08942,-0.09806 0,-0.115393 0,-0.230785 0,-0.346178 0.03944,-0.0493 0.07888,-0.0986 0.118324,-0.147905 0.118325,0.01972 0.236658,0.03941 0.354976,0.05916 z"
       id="eye-right" />
    <path
       style="fill:#ffffff;fill-opacity:1"
       d="M 9.9688098,10.442106 C 9.8209046,10.323782 9.6729994,10.205458 9.5250942,10.087134 c -0.2003861,-0.0273 -0.3992894,-0.06539 -0.6005776,-0.08599 -0.4537285,0.09808 -0.8559821,0.386783 -1.1054441,0.776954 -0.1062718,0.148811 -0.2116219,0.30064 -0.255185,0.481162 -0.094424,0.329748 -0.1787904,0.683062 -0.1025357,1.024989 0.1067565,0.294941 0.2279194,0.613499 0.4872702,0.808414 0.2783967,0.166362 0.6037365,0.237738 0.9259232,0.238215 0.3342436,0.02398 0.6658857,-0.04831 0.9809312,-0.154616 0.1879406,-0.134267 0.4023696,-0.252344 0.5319736,-0.449035 0.126568,-0.296384 0.263188,-0.597067 0.30237,-0.91973 0.0032,-0.212221 -0.116165,-0.399332 -0.182961,-0.595142 -0.0784,-0.236824 -0.187381,-0.472454 -0.382144,-0.636682 -0.05217,-0.04447 -0.106929,-0.08533 -0.1559052,-0.133567 z"
       id="path5" />
    <path
       style="fill:#000000;fill-opacity:1"
       d="m 10.205458,11.714091 c -0.08874,-0.06902 -0.177486,-0.138045 -0.2662293,-0.207067 -0.068733,0.08018 -0.1407217,0.157565 -0.2074217,0.239484 -0.00258,0.09187 -0.046044,0.186356 -0.00918,0.276433 0.029853,0.06783 0.064696,0.137189 0.1248582,0.183212 0.036143,0.03746 0.092313,0.07177 0.1450978,0.04869 0.066709,-0.03082 0.122443,-0.08414 0.195077,-0.101997 0.05037,-0.02503 0.08833,-0.08569 0.06705,-0.14193 -0.02307,-0.09786 -0.03261,-0.197878 -0.04925,-0.296828 z"
       id="eye-left" />
  </g>
</svg>
