<?xml version="1.0" encoding="UTF-8" standalone="no"?>
<!-- Created with Inkscape (http://www.inkscape.org/) -->

<svg
   version="1.1"
   id="svg1"
   width="338.00635"
   height="576.51349"
   viewBox="0 0 338.00635 576.51349"
   xmlns:xlink="http://www.w3.org/1999/xlink"
   xmlns="http://www.w3.org/2000/svg"
   xmlns:svg="http://www.w3.org/2000/svg">
  <defs
     id="defs1">
    <linearGradient
       id="linearGradient10">
      <stop
         style="stop-color:#ff0066;stop-opacity:1;"
         offset="0"
         id="stop10" />
      <stop
         style="stop-color:#ff3f4c;stop-opacity:0.74901961;"
         offset="0.25"
         id="stop13" />
      <stop
         style="stop-color:#ff7f33;stop-opacity:0.49803922;"
         offset="0.5"
         id="stop12" />
    </linearGradient>
    <linearGradient
       id="linearGradient2">
      <stop
         style="stop-color:#ed0000;stop-opacity:1;"
         offset="0"
         id="stop2" />
      <stop
         style="stop-color:#ff2a2a;stop-opacity:0;"
         offset="1"
         id="stop3" />
    </linearGradient>
    <linearGradient
       xlink:href="#linearGradient2"
       id="linearGradient3"
       x1="320.92416"
       y1="536.75494"
       x2="648.50616"
       y2="536.75494"
       gradientUnits="userSpaceOnUse" />
    <linearGradient
       xlink:href="#linearGradient2"
       id="linearGradient3-6"
       x1="320.92416"
       y1="536.75494"
       x2="648.50616"
       y2="536.75494"
       gradientUnits="userSpaceOnUse"
       gradientTransform="rotate(155.19642,483.38694,536.96135)" />
    <filter
       style="color-interpolation-filters:sRGB"
       id="filter3"
       x="-0.0073772625"
       y="-0.0075614713"
       width="1.0174524"
       height="1.0151309">
      <feGaussianBlur
         stdDeviation="0.76610065"
         id="feGaussianBlur3" />
    </filter>
    <linearGradient
       xlink:href="#linearGradient10"
       id="linearGradient11"
       x1="453.22888"
       y1="197.33101"
       x2="558.44012"
       y2="197.33101"
       gradientUnits="userSpaceOnUse" />
  </defs>
  <g
     id="layer3"
     transform="translate(-317.3343,-117.35053)">
    <path
       style="fill:#000000;fill-opacity:1;stroke:#ffffff"
       d="m 391.00991,479.8758 c -10.79943,-4.68876 -23.63608,-6.32139 -31.77332,-15.66524 -7.96774,-6.8175 -11.64319,-16.92646 -16.65495,-25.83086 -3.99077,-16.85482 -7.11394,-34.87873 -1.7467,-51.79773 3.57075,-15.88283 12.56061,-29.64227 19.53465,-44.13677 6.65366,-12.71349 14.15764,-25.21765 24.37502,-35.41882 2.88912,-6.71356 11.26314,-9.82655 12.72031,-17.27162 -2.4282,-11.22917 -11.41206,-0.40469 -14.24611,4.72912 -6.35022,6.1277 -12.46109,12.64626 -16.90688,20.4407 -5.08424,8.64236 -10.97815,16.74029 -17.15958,24.60326 -8.48869,13.57591 -11.24904,29.67551 -17.76635,44.15066 -2.61106,8.80815 -3.23603,18.16318 -3.54197,27.25741 1.75405,13.49036 2.79027,27.47177 9.05075,39.78701 4.13022,15.11518 17.09125,25.15728 28.62157,34.67475 5.33399,3.75242 13.64611,8.94164 19.58194,3.55406 2.27511,-2.82249 3.49006,-6.29636 5.91162,-9.07593 z"
       id="path5" />
    <path
       style="display:inline;mix-blend-mode:normal;fill:url(#linearGradient3);stroke:#ffffff;filter:url(#filter3)"
       d="m 370.69771,465.91116 c -17.73703,-34.68278 44.70192,-14.52289 34.54232,-52.06013 -14.87552,-39.36345 33.97241,17.02883 47.2367,-17.64482 7.54078,-43.25598 36.62727,35.7816 52.94103,-11.13298 11.95683,-1.24333 12.082,34.32083 32.47676,19.17362 26.54861,-12.12702 12.86217,28.88711 39.98215,19.00969 8.54283,1.59105 6.7352,14.00541 21.02478,13.27824 -16.53639,22.0649 25.58875,33.14244 16.28916,49.44082 27.90771,6.33807 -5.64372,26.26111 18.707,35.21095 21.77984,11.85258 -15.42862,21.8762 8.23853,40.60709 -34.26839,1.74679 -9.91081,37.87665 -8.09956,41.24305 -28.2663,-14.43215 -37.3759,29.72493 -32.17966,37.33087 -27.66311,-6.67644 -16.73544,39.46565 -17.66623,34.42246 -17.52933,-31.77396 -53.90462,7.80187 -54.67417,15.40727 -11.31742,-27.30038 -28.75128,11.73567 -36.04649,-6.53801 -11.56872,7.53679 -23.008,14.56676 -26.08393,-3.68906 -15.4028,-2.756 -26.35399,9.34381 -31.66152,-10.67261 -16.05259,-6.68341 -43.39229,9.41456 -41.36123,-18.24471 -5.52386,-24.84072 -48.0446,-2.59135 -23.96782,-23.8559 3.29205,-23.88293 -41.37617,-9.76805 -18.59009,-34.63822 -0.10872,-17.17722 -31.67908,-13.88468 -5.16326,-22.43484 11.20237,-21.51331 -43.49121,-23.7992 -10.24837,-27.40029 31.01685,-14.95715 -24.99328,-52.19977 17.76578,-50.21856 0.70349,-12.49715 -9.92804,-26.92137 9.78955,-17.5944 3.23494,-2.28774 3.67391,-6.56906 6.74857,-8.99953 z"
       id="path1" />
    <path
       style="display:inline;fill:#000000;fill-opacity:1;stroke:#ffffff"
       d="m 592.86243,490.0319 c 10.46966,-6.47699 22.58374,-11.302 29.4566,-22.18219 9.61336,-13.56146 15.55481,-29.32507 22.61878,-44.28896 0.97834,-19.0756 3.4953,-38.74543 -2.96648,-57.17933 -8.06996,-29.32894 -19.89964,-57.56573 -33.87475,-84.5496 14.04602,-6.26292 14.24153,17.46712 21.41108,25.02326 6.63628,13.28754 13.17843,26.62668 19.26675,40.17595 0.7787,15.15144 5.26022,29.89563 6.06587,44.94131 -0.43983,15.46312 -0.0761,31.22151 -5.67841,45.91677 -2.9502,13.57158 -12.23579,24.29829 -19.4251,35.8412 -5.63706,8.69202 -12.33361,16.3401 -21.45541,21.26692 -6.01757,5.42975 -10.53278,-2.19048 -15.41893,-4.96533 z"
       id="path3" />
    <path
       style="fill:#000000;fill-opacity:1;stroke:#ffffff"
       d="m 533.19533,199.31349 c 5.28948,-1.63068 11.17085,-11.03692 16.19711,-3.80832 19.12007,21.59718 38.41944,43.04901 57.43463,64.74493 5.31105,11.51556 10.71539,22.99197 16.50366,34.27685 -7.53784,7.93168 -10.7172,-4.48419 -14.09235,-9.46737 -7.3932,-10.49209 -16.60539,-19.7483 -22.11877,-31.48693 -6.58731,-11.56363 -14.67762,-22.24421 -24.52358,-31.22857 -8.67795,-9.03451 -18.25418,-17.19318 -29.4007,-23.03059 z"
       id="right-hand" />
    <path
       style="fill:#000000;fill-opacity:1;stroke:#ffffff"
       d="m 476.06726,208.20008 c -27.4148,23.733 -56.80488,45.33943 -81.64365,71.90898 -9.10596,9.47995 -17.57249,19.62745 -25.46256,30.09144 -0.92975,6.56835 9.60889,6.16466 10.11822,0.14221 17.16395,-22.45899 37.24978,-42.90161 60.70923,-58.79891 10.26164,-8.08814 19.00919,-17.8865 28.89065,-26.3881 3.62548,-2.76262 11.91829,-3.94007 10.07673,-10.00949 -1.03825,-2.25106 -1.76973,-4.64176 -2.68862,-6.94613 z"
       id="left-hand" />
    <path
       style="display:inline;fill:url(#linearGradient3-6);stroke:#ffffff"
       d="m 615.48691,554.18313 c 30.65054,24.04249 -34.48575,31.93602 -9.51616,61.74845 30.01659,29.49181 -37.98224,-1.20622 -35.47701,35.83332 11.30111,42.4291 -48.25915,-17.11533 -43.38691,32.3152 -10.33224,6.14463 -25.36534,-26.08627 -37.52432,-3.78059 -19.01214,22.14569 -23.79405,-20.82652 -44.26858,-0.48321 -8.42223,2.13952 -11.98928,-9.88795 -24.65561,-3.23326 5.75451,-26.9666 -37.13177,-19.35038 -35.52736,-38.04652 -27.99214,5.95414 -5.89368,-26.20614 -31.75261,-24.11503 -24.74294,-1.62236 4.82809,-26.33059 -24.51357,-33.405 30.37438,-15.96154 -6.89303,-38.54025 -9.94943,-40.83627 31.71318,1.24284 21.45815,-42.66236 13.5505,-47.3868 27.91205,-5.54437 -1.36457,-42.84565 1.59602,-38.65817 29.24172,21.48915 45.65903,-29.69562 43.16706,-36.92226 21.72615,20.0342 21.17579,-22.71448 35.464,-9.18693 7.33977,-11.69471 14.77466,-22.87506 25.22531,-7.59369 15.13808,-3.95985 20.00306,-19.53759 33.21804,-3.59421 17.37551,-0.66733 35.43992,-26.74953 45.19953,-0.78974 15.43519,20.23189 44.69964,-17.80283 31.76458,11.60051 7.03073,23.06081 41.65705,-8.49071 31.40621,23.64418 7.30469,15.54704 34.58147,-0.68581 14.09857,18.19923 -1.14394,24.22822 49.46317,3.35881 20.79763,20.57336 -21.88093,26.58922 44.58595,36.89951 4.94022,53.03887 4.60407,11.63942 20.30594,20.273 -1.50547,20.07814 -1.9768,3.43378 -0.57922,7.50431 -2.35064,11.00042 z"
       id="path1-7" />
    <path
       style="display:inline;fill:#ffffff;fill-opacity:1;stroke:#ffffff"
       d="m 520.5002,491.30141 c -8.73603,8.03318 -20.02795,14.22794 -24.99319,25.55302 -4.79664,13.06852 -1.5259,27.13521 1.086,40.29364 3.46891,5.19738 7.70156,9.88012 11.52475,14.84086 1.16528,1.45661 2.33057,2.91322 3.49586,4.36983 10.4658,3.42992 21.86235,8.28815 32.88871,4.30239 12.70874,-4.02325 25.55199,-11.32322 31.43783,-23.85364 5.72679,-11.72998 4.5616,-25.49198 0.64513,-37.58371 -2.17698,-7.75551 -5.3129,-15.70476 -11.82503,-20.85624 -8.02439,-6.74302 -18.35681,-10.30073 -28.63178,-11.65944 -5.57925,-0.0587 -10.34396,3.35881 -15.62828,4.59329 z"
       id="path7" />
    <path
       style="display:inline;fill:#ffffff;fill-opacity:1;stroke:#ffffff"
       d="m 426.55627,486.22336 c -19.80328,3.86103 -37.1123,19.11227 -40.49836,39.46518 -5.57221,20.34709 3.30746,45.60779 23.65965,53.93623 16.14612,9.54866 38.07042,4.26697 48.89755,-10.83877 12.30231,-13.04261 14.19518,-32.39342 11.54755,-49.3299 -5.33983,-14.05853 -19.11641,-24.14013 -32.15615,-30.84583 -3.64845,-1.63923 -7.63606,-1.56616 -11.45024,-2.38691 z"
       id="path8" />
    <path
       style="fill:#000000;fill-opacity:1;stroke:#ffffff"
       d="m 441.79042,509.07459 c -1.20387,3.37083 -4.74692,3.81769 -5.95079,7.18853 -0.91199,2.55356 0.51521,8.03109 -0.39678,10.58465 2.59066,2.42928 3.97179,6.14519 7.30974,7.74286 1.32581,0.54588 2.78072,0.63392 4.1593,1.01231 2.10138,0.46698 4.20276,0.93395 6.30414,1.40093 2.81416,-2.58717 7.01381,-3.22224 9.46546,-6.25635 1.11393,-1.2631 0.85418,-2.97667 1.07127,-4.51024 0.36797,-2.64636 1.47049,-5.4908 0.19081,-8.0537 -1.45999,-2.18999 -2.91998,-4.37997 -4.37997,-6.56996 -2.75185,-0.39312 -4.72397,-3.90515 -7.47582,-4.29827 -3.17254,-0.45323 -7.12482,2.21246 -10.29736,1.75924 z"
       id="left-eye" />
    <path
       style="fill:#000000;fill-opacity:1;stroke:#ffffff"
       d="m 526.84777,529.38679 0.0999,-9.96117 c -5.79893,-4.81033 -11.83583,-10.64289 -19.87019,-8.52881 -5.92944,4.34811 -11.40864,11.41676 -7.80728,18.99142 0.1427,7.92476 11.81807,6.35339 17.73972,7.21805 4.90901,0.0739 9.83783,-7.71949 9.83783,-7.71949 z"
       id="right-eye" />
    <path
       style="fill:#ffff00;fill-opacity:1;stroke:#ff6600;stroke-opacity:1"
       d="m 480.41237,171.13402 21.64949,-52.57732 23.71134,47.42268 59.79381,15.46392 -40.20619,32.98969 6.18557,58.76289 -49.48453,-24.74227 -48.45361,27.83505 10.30928,-54.63918 -34.02062,-43.29896 z"
       id="star-1" />
    <path
       style="fill:url(#linearGradient11);stroke:#ff6600;stroke-width:0.62914;stroke-opacity:1"
       d="m 487.55452,181.78665 14.44134,-31.19848 15.81671,28.1398 39.8856,9.17603 -26.81963,19.57551 4.1261,34.86889 -33.00878,-14.68164 -32.3211,16.51684 6.87683,-32.42195 -22.69353,-25.69286 z"
       id="star-2" />
  </g>
</svg>
