<?xml version="1.0" encoding="UTF-8" standalone="no"?>
<!-- Created with Inkscape (http://www.inkscape.org/) -->

<svg
   version="1.1"
   id="svg1"
   width="100.40591"
   height="77.689972"
   viewBox="0 0 100.4059 77.689973"
   sodipodi:docname="monster-1.svg"
   inkscape:export-filename="monster-1.svg"
   inkscape:export-xdpi="96"
   inkscape:export-ydpi="96"
   xmlns:inkscape="http://www.inkscape.org/namespaces/inkscape"
   xmlns:sodipodi="http://sodipodi.sourceforge.net/DTD/sodipodi-0.dtd"
   xmlns:xlink="http://www.w3.org/1999/xlink"
   xmlns="http://www.w3.org/2000/svg"
   xmlns:svg="http://www.w3.org/2000/svg">
  <sodipodi:namedview
     id="namedview1"
     pagecolor="#ffffff"
     bordercolor="#000000"
     borderopacity="0.25"
     inkscape:showpageshadow="2"
     inkscape:pageopacity="0.0"
     inkscape:pagecheckerboard="0"
     inkscape:deskcolor="#d1d1d1">
    <inkscape:page
       x="0"
       y="0"
       width="100.4059"
       height="77.689972"
       id="page2"
       margin="0"
       bleed="0" />
  </sodipodi:namedview>
  <defs
     id="defs1">
    <linearGradient
       id="linearGradient13">
      <stop
         style="stop-color:#ffd42a;stop-opacity:1;"
         offset="0"
         id="stop13" />
      <stop
         style="stop-color:#b8cd00;stop-opacity:0.32009926;"
         offset="1"
         id="stop14" />
    </linearGradient>
    <linearGradient
       id="linearGradient11">
      <stop
         style="stop-color:#ffd42a;stop-opacity:1;"
         offset="0"
         id="stop11" />
      <stop
         style="stop-color:#ffe33a;stop-opacity:0.4987593;"
         offset="1"
         id="stop12" />
    </linearGradient>
    <linearGradient
       id="linearGradient4">
      <stop
         style="stop-color:#920078;stop-opacity:1;"
         offset="0"
         id="stop3" />
      <stop
         style="stop-color:#ed00c0;stop-opacity:0.06451613;"
         offset="1"
         id="stop4" />
    </linearGradient>
    <linearGradient
       id="linearGradient1">
      <stop
         style="stop-color:#920078;stop-opacity:1;"
         offset="0"
         id="stop1" />
      <stop
         style="stop-color:#270020;stop-opacity:1;"
         offset="1"
         id="stop2" />
    </linearGradient>
    <linearGradient
       xlink:href="#linearGradient1"
       id="linearGradient2"
       x1="348.07761"
       y1="296.38293"
       x2="853.82404"
       y2="296.38293"
       gradientUnits="userSpaceOnUse"
       gradientTransform="translate(-50.833118,-23.316255)" />
    <linearGradient
       xlink:href="#linearGradient4"
       id="linearGradient3"
       gradientUnits="userSpaceOnUse"
       x1="348.07761"
       y1="296.38293"
       x2="856.724"
       y2="275.26688"
       gradientTransform="matrix(0.10658548,0.06622735,-0.06622735,0.10658548,24.628479,-36.059585)" />
    <filter
       style="color-interpolation-filters:sRGB"
       id="filter4"
       x="-0.0038226952"
       y="-0.0035441568"
       width="1.0076454"
       height="1.0070883">
      <feGaussianBlur
         stdDeviation="0.79324222"
         id="feGaussianBlur4" />
    </filter>
    <linearGradient
       xlink:href="#linearGradient11"
       id="linearGradient12"
       x1="3"
       y1="404.11255"
       x2="218.39456"
       y2="404.11255"
       gradientUnits="userSpaceOnUse"
       gradientTransform="matrix(0.1184588,-0.04140096,0.04140096,0.1184588,-16.38531,20.173293)" />
    <linearGradient
       xlink:href="#linearGradient13"
       id="linearGradient14"
       x1="50.833118"
       y1="529.87061"
       x2="266.22769"
       y2="529.87061"
       gradientUnits="userSpaceOnUse"
       gradientTransform="matrix(0.12548517,0,0,0.12548517,-6.3788015,-2.925845)" />
  </defs>
  <path
     style="display:inline;mix-blend-mode:normal;fill:url(#linearGradient2);filter:url(#filter4)"
     d="m 574.6727,78.349985 c 6.49268,-10.052325 20.25545,-48.576259 15.07762,-12.923677 -5.98942,48.757732 18.26962,-45.611022 13.78525,2.153943 -6.52665,41.688709 20.10702,-26.011619 18.021,12.123394 10.18512,-23.508274 19.22479,-48.666715 28.93502,-72.8646606 8.0878,24.9595106 -18.2989,56.7593506 -24.23767,84.3338006 -8.74805,43.417175 39.51451,-71.451089 23.8519,-18.279428 -7.983,17.272218 -20.48966,38.617003 1.26523,13.515618 -3.08638,12.21592 -11.18941,36.278845 1.9971,10.69654 4.75195,-19.20509 41.00252,-54.858291 21.04403,-15.22866 -5.26026,11.31259 -23.75115,41.179825 -2.7455,17.37302 27.93972,-22.888254 9.38808,1.996875 -0.55412,15.589105 16.54954,-9.68971 40.42341,-33.686775 22.13485,1.95893 -7.46159,20.79296 -21.1498,51.92685 2.69243,20.73173 8.68244,-15.63717 57.74151,-56.706765 30.29,-18.41053 -10.89901,11.55581 -53.23413,51.48686 -12.52064,36.02255 20.25406,-8.67769 38.69471,-25.09796 16.53953,2.77344 -26.43968,30.40399 16.06963,22.15004 28.48897,28.27143 -17.36461,8.88735 -54.90369,46.49015 -16.67748,26.31226 15.93851,-13.37379 34.73446,1.3265 6.26646,7.51628 -13.84926,4.89862 -55.4062,16.57955 -22.75911,26.80756 17.2531,-4.04367 75.25825,-26.12412 72.58056,-7.74696 -16.93662,3.99051 -93.12191,17.13768 -38.55523,20.74974 30.00707,0.64125 -35.83676,10.19534 5.0497,15.23062 16.3429,6.04231 44.75669,13.53295 12.66019,15.43641 -20.04193,0.93748 -88.11105,22.82886 -33.79613,27.63746 49.03365,10.52301 -52.2269,4.38421 -8.4727,15.46265 20.37952,6.83195 28.45302,18.97197 0.72021,10.07092 -51.49112,-19.00917 74.00098,26.60554 17.17474,14.86952 -47.80407,-17.07274 38.49848,33.36394 26.43713,29.99419 -20.40369,-0.13114 -62.55969,-14.98758 -24.32631,4.20501 41.32706,25.0782 -68.33582,-23.05374 -29.37544,4.40176 18.74958,7.68801 54.66395,38.96111 13.80987,18.21314 -16.86018,-6.59759 -38.86865,-29.46377 -17.21528,-1.52017 -19.08985,0.4944 27.70353,33.44369 -9.30149,7.72588 1.21008,16.70085 35.17305,79.28624 -0.67702,43.74808 -15.91781,-9.08816 -48.32449,-27.23413 -20.00224,-0.85614 18.06257,11.65998 30.22464,48.9988 4.95563,16.70427 -14.82168,-15.93301 -30.9802,-44.70411 -24.88747,-8.4183 -19.35007,-21.10674 5.42483,37.55914 -13.8485,-0.4873 -11.43718,-16.79231 -35.44891,-32.21469 -26.3481,1.31331 9.20162,19.68078 12.72448,54.87962 -4.44885,20.03893 -4.54277,-20.3503 -20.79325,-31.01319 -13.8723,-1.99421 -5.69364,18.89088 5.41141,58.4345 -10.16268,19.25507 -3.88414,-17.16355 -36.81224,-62.92614 -30.98077,-18.56493 5.17234,20.29072 -12.00586,47.61751 -9.21291,11.20366 -5.51867,-48.13403 -15.91041,20.89968 -24.85342,33.53465 -5.46557,12.61157 -6.84328,-37.07498 -14.88988,-48.49098 -3.94132,-23.90946 -10.21824,41.13932 -11.53793,2.7027 -18.06437,-17.39533 -55.47658,72.28681 -33.88119,13.10253 8.85051,-17.89193 19.32335,-59.15679 -1.69754,-24.11568 -6.37437,11.82992 -16.35257,70.9683 -16.50836,33.75261 6.2375,-14.70791 10.61137,-69.99234 -11.55417,-32.82725 -20.06706,29.63744 -11.82127,-10.73063 -13.45267,-24.63391 1.58384,-1.43757 -31.19781,48.55719 -17.07552,13.21796 10.10653,-16.05759 19.88732,-34.59811 -2.20534,-12.01215 -18.63497,17.35797 -23.66246,22.05001 -19.50068,-3.96776 -21.14568,17.8733 26.84365,-60.28533 -3.74771,-23.60278 -6.21101,17.56421 -53.52391,51.84281 -25.78753,16.37683 15.77146,-16.78365 56.25274,-63.42996 13.33098,-35.53865 -17.74622,6.75567 -50.95575,41.76557 -22.9849,7.65693 10.69179,-15.63104 32.96997,-40.39592 1.91107,-23.49762 3.91861,-7.17829 44.77581,-38.16872 11.35101,-20.35992 -13.24082,14.73521 -53.82063,15.78744 -17.45068,0.73108 17.99221,-10.93262 69.04194,-30.20327 20.32906,-16.32833 -19.89696,3.29851 -57.26365,21.73982 -28.82013,-7.1159 34.88416,-43.16738 -64.16986,1.35554 -22.0811,-20.30878 20.81426,-9.79611 41.73381,-40.21804 3.10346,-39.47934 46.04152,2.73602 -46.97544,-13.14091 -4.8543,-11.82258 16.13665,4.48425 45.36012,1.46361 14.33612,-7.76612 -18.58458,4.76113 -55.30869,-18.97264 -18.33515,-11.92279 45.95522,14.88646 -55.98306,-38.39849 1.95474,-24.9678 18.11845,1.27792 48.33739,-5.01732 17.29207,-15.21963 -26.7377,-14.89262 -4.89168,-9.05709 13.07671,-3.52847 -8.17463,-12.27581 -65.04357,-29.45415 -42.89748,-36.40317 15.86759,13.66739 80.9821,43.29493 39.19652,8.49233 -11.33245,-8.32814 -31.95865,-21.56619 -5.94101,-8.68862 30.7687,13.05705 7.34824,-7.84646 -6.00501,-14.12526 25.68092,8.21988 63.33256,9.88675 26.87478,-12.14776 18.71099,3.52015 34.31032,6.47208 14.74653,-12.89639 -6.74851,-11.4185 -27.60494,-41.317795 -1.85014,-20.7279 39.3758,32.1288 -46.27017,-60.018403 -5.60994,-32.602205 9.57372,18.101055 58.95179,74.705385 29.80829,26.703605 -9.05381,-20.809725 -30.10141,-53.154591 1.4336,-25.764405 27.00828,25.406035 -12.55511,-36.644418 12.67755,0.97025 17.13595,25.019175 24.52235,21.299515 13.98295,-6.33699 -7.324,-24.095425 39.35342,42.431275 15.6693,1.04769 -14.33138,-15.533087 -11.87921,-43.849148 1.82609,-10.543176 11.47947,17.681916 21.34004,38.442411 8.65589,6.573606 -7.01481,-11.815124 -22.39218,-51.217441 -1.94902,-26.417555 3.60186,21.267042 17.58926,27.520085 6.12755,2.100459 23.2825,36.873116 -5.6391,-40.351433 13.71705,-3.484005 10.11889,10.861667 39.48903,64.527356 32.03585,20.348721 -4.25743,-18.151262 -10.81426,-35.082913 3.93847,-10.982757 30.92984,35.972977 -11.0375,-53.0240426 10.47635,-60.2767766 4.51231,19.8463106 6.1278,45.9886526 9.12676,65.3903366 1.66027,-32.891115 20.98817,39.650422 14.72808,-4.155493 -6.65478,-18.979725 0.68835,-70.4835276 3.94767,-24.878461 -2.28522,61.173661 38.00237,-66.961596 28.7255,-2.843704 1.00302,14.557248 4.56854,28.213477 2.29132,42.933525 z"
     id="shadow-body"
     transform="scale(0.12548517)" />
  <path
     style="fill:#000000;fill-opacity:1;stroke-width:0.125485"
     d="m 45.300306,40.536503 c -1.939667,0.22765 -3.903958,0.41747 -5.704127,1.23927 -3.454847,1.43837 -6.952423,2.85601 -10.06563,4.9645 -2.996433,1.89738 -6.117591,3.62051 -8.974193,5.72573 -0.315975,0.43792 -1.443449,0.6674 -1.051151,1.28551 0.60803,2.70509 2.698416,-0.21365 3.889719,-0.9603 3.021181,-2.42753 6.499104,-4.20421 9.830868,-6.15495 3.251182,-1.72497 6.769333,-2.83247 10.191116,-4.15717 1.184975,-0.40185 3.733144,0.5985 3.704813,-1.07987 -0.442427,-0.45131 -1.2572,-0.5508 -1.821415,-0.86272 z"
     id="left-hand" />
  <path
     style="fill:#000000;fill-opacity:1;stroke-width:0.125485"
     d="m 18.3796,65.943593 c 2.185984,0.89356 4.449582,1.63893 6.817273,1.82125 2.460761,0.41287 4.969582,0.19941 7.452885,0.17892 2.602756,-0.0994 5.231843,-0.10217 7.774161,-0.73224 2.761061,-0.54234 5.517966,-1.14773 8.232196,-1.88199 3.392415,-1.03782 6.663959,-2.41375 9.925265,-3.79878 3.121861,-1.52421 6.345439,-2.87123 9.351233,-4.61351 1.289309,-0.84128 2.578225,-1.68315 3.855943,-2.54198 0.519355,0.59238 0.858072,1.16687 -8.9e-4,1.62276 -1.287044,0.97281 -2.706199,1.80406 -4.091194,2.63971 -4.114915,1.97016 -8.055897,4.30302 -12.228682,6.14516 -2.450705,0.91522 -4.85801,1.9658 -7.427358,2.51092 -2.85298,0.73609 -5.677309,1.60578 -8.6099,1.9706 -2.704664,0.46416 -5.462361,0.53915 -8.191617,0.78095 -2.514449,-0.21582 -5.075459,-0.0809 -7.530895,-0.74127 -1.951462,-0.36206 -3.911953,-0.85221 -5.733836,-1.60375 -0.771412,-0.51818 -0.879145,-1.00325 0.01633,-1.43829 0.12974,-0.10615 0.259484,-0.2123 0.389224,-0.31846 z"
     id="right-hand" />
  <path
     style="display:inline;mix-blend-mode:normal;fill:url(#linearGradient3);stroke-width:0.125485"
     d="m 84.565234,16.202153 c 0.860088,-0.72538 4.6896,-2.92326 2.462955,-0.37893 -2.95196,3.47271 4.181622,-2.35584 1.42287,0.90097 -1.667755,1.88864 0.226135,2.08884 1.610259,1.06136 -0.988217,3.38308 3.517203,-1.80318 4.783956,-2.3779 1.33404,-1.14346 3.832894,-1.90925 1.526616,0.0543 -2.393511,2.38175 -5.60415,3.77741 -7.850488,6.32392 1.980589,0.48854 4.310939,-2.79074 5.385869,-2.05104 -0.850708,0.96501 -5.223598,3.48969 -1.788316,2.34108 -0.937906,0.80384 -2.657849,2.88849 -0.410421,1.33832 0.881543,-1.33408 6.428116,-2.83381 3.794974,-0.52294 -1.011198,0.46729 -5.112733,2.86212 -1.786371,1.90249 3.363156,-0.36498 0.384303,1.19314 -0.967161,1.55352 1.393948,-0.11761 5.386135,-0.009 2.304827,1.52252 -1.340166,0.44583 -5.183601,4.16624 -1.541473,2.72089 1.858174,-0.1093 5.619488,-2.61825 6.142825,-0.77839 -1.405949,2.21437 -7.356268,0.49978 -6.651216,3.41094 0.988324,0.94231 6.641783,0.10021 3.312306,1.60913 -3.550708,0.0698 -1.902152,3.99079 0.34294,4.72936 -0.750487,0.93425 -6.138727,0.28621 -4.502421,1.7426 1.643692,-0.41405 5.346116,1.91482 1.79794,1.61384 -1.352461,-1.20614 -6.952979,-1.13658 -4.015085,1.12956 1.988808,1.49737 7.76346,1.36196 7.444547,3.79792 -1.96829,0.31844 -6.146366,-3.15661 -6.65829,-1.43836 0.784467,1.25346 3.222612,2.5568 0.46224,1.77292 -0.283053,1.30672 4.64753,5.67003 0.756187,4.02725 -1.778607,-0.83185 -6.311373,-2.73069 -6.755384,-0.73367 0.72374,0.85138 3.967203,3.47025 0.882566,2.31029 -1.759891,-1.26314 -2.346715,-0.51644 -0.787235,0.90719 1.750895,3.20685 -1.537619,0.59901 -2.091187,-0.86138 0.676522,1.44981 3.357918,3.99428 2.774717,4.79165 -0.90837,-1.13327 -3.164439,-3.07214 -1.978017,-0.27673 0.410844,1.36939 3.479519,6.07735 0.32903,3.31475 -0.80676,-1.0553 -3.320284,-2.9347 -1.487771,-0.34722 1.455618,3.57063 -1.764079,-1.33403 -2.830835,-1.8868 -1.90625,-0.54537 1.521303,3.15087 1.206267,4.42123 0.01971,2.34161 -2.156791,-2.12363 -2.538789,-2.99117 -1.549971,-2.18473 -0.680308,5.26611 -2.26439,1.56609 -1.087272,1.6619 -0.331584,5.86903 -2.210848,5.90852 -0.569715,-1.62773 -1.787867,-5.02169 -2.995628,-4.84882 0.249917,1.56115 1.703943,5.49795 0.07968,5.57201 -0.787187,-1.57023 0.0271,-5.94765 -1.726721,-5.69907 -0.599754,1.88729 -1.503656,-0.20513 -1.981323,1.88963 0.01379,-1.60182 -0.858299,-7.20818 -2.858426,-3.70455 -0.02612,1.37837 -1.862997,6.47363 -2.006655,3.11604 0.4981,-1.23575 0.363385,-5.05356 -1.226872,-2.2908 -0.833017,1.43973 -3.56367,6.10042 -2.484073,1.98427 0.884351,-1.58237 0.385798,-7.76437 -1.781935,-4.64878 -0.106851,1.75858 -4.094469,4.49443 -2.169387,1.49987 1.544649,-2.00431 0.03804,-3.51237 -1.413135,-1.07269 -0.936615,1.50181 -5.157594,3.85062 -2.887571,0.45694 0.850201,-1.29667 2.044263,-6.28694 -0.500604,-3.31386 1.153339,-5.02868 -4.806876,0.29237 -5.749147,-0.77218 1.187062,-1.38659 5.530105,-3.21366 4.36129,-4.61115 -2.299154,0.341 -4.273363,4.35139 -5.748079,3.91069 0.759359,-1.39686 5.418657,-5.06067 2.218933,-5.3304 -1.548547,1.23101 -4.082864,0.62758 -1.844014,-1.312 1.657632,-1.81948 0.241552,-2.26725 -1.091402,-0.75237 -4.234558,0.80547 4.795508,-3.54626 0.934844,-2.43107 -1.505636,0.83206 -5.639105,0.62061 -2.686589,-1.35407 -2.375895,-0.74504 5.522697,-3.89999 1.219722,-2.97883 -1.280569,0.87198 -5.390536,2.08816 -5.132921,0.61748 2.07403,-1.27137 6.752612,-1.44953 7.250516,-3.21403 -1.965194,-0.96809 -6.052054,0.2491 -6.856326,-0.36724 1.491193,-0.77443 5.333573,-1.34336 4.931343,-2.70496 -3.470185,-0.59199 5.196509,-1.23251 1.20329,-1.59678 -1.377565,0.46865 -5.995696,-1.34168 -2.384639,-1.26218 1.500114,-0.10937 5.421611,1.0193 5.526509,0.24804 -1.528048,-1.2661 -6.217434,-0.44406 -5.899381,-2.8119 2.745817,0.34316 4.24768,-3.55804 0.611523,-3.42166 -3.749233,-1.48389 2.548355,0.40952 3.367009,-1.31192 2.57184,-0.7747 -0.914937,-4.14115 -0.123484,-3.03741 2.249395,1.38164 -3.351053,-3.87413 -0.434231,-1.81744 0.919845,0.92772 4.504917,2.6832 2.237666,0.0905 -1.869408,0.21481 -4.04943,-5.23812 -1.18845,-2.50748 2.833993,2.94825 -2.169797,-6.56539 1.637213,-2.68181 0.862348,1.43272 5.640743,2.28413 3.089509,-0.31298 -1.666434,-2.42459 0.675445,-1.07501 1.445362,0.14296 0.09227,-2.21286 -3.862113,-4.5391 -2.184943,-6.3532 1.237302,1.42859 2.811581,6.62212 4.302788,5.10094 -0.379462,-1.47744 -2.317722,-5.88524 -0.190752,-2.33038 2.700316,2.24054 -1.487865,-4.50437 1.395447,-1.15659 1.442631,2.04822 3.792172,2.37472 2.572486,-0.42787 1.357533,1.1167 3.317289,2.02103 1.985666,-0.70022 -0.456857,-1.35922 0.653068,-5.29258 1.546483,-2.03508 1.659692,0.53641 -1.167316,-4.26383 0.376208,-5.49518 2.222538,1.88817 0.190201,7.06064 2.033299,8.06092 0.720999,-1.54298 -0.04816,-6.70477 1.510535,-6.01406 0.281425,1.33148 1.927813,3.63469 1.637592,0.81663 0.114242,1.39105 1.134504,6.78137 1.729386,2.63587 0.820673,-3.00015 1.481702,0.59495 1.865154,1.66569 -0.501784,-2.06271 1.415564,-6.836068 1.135159,-2.38936 -0.245918,1.36289 0.04451,4.66052 0.393148,1.57774 -0.449675,-1.50025 1.458524,-6.621875 1.358116,-2.75152 -0.44956,2.83402 0.871954,0.66946 0.756048,0.67306 0.226224,3.26032 2.027501,-4.157052 1.716011,0.25767 0.183397,1.3524 -0.217868,7.08458 1.81899,4.54448 0.391716,-1.40823 1.396957,-4.57209 1.434657,-1.25146 0.883292,3.14447 2.140092,-2.64995 2.849959,-3.58842 -0.213645,-1.78716 2.953095,-3.05348 1.711677,-0.57307 -0.659667,1.44616 -3.495022,5.36417 -1.869382,5.09423 -0.430351,1.49753 0.06137,3.85275 0.904859,1.1573 0.18511,-1.41261 2.436267,-5.07758 2.669614,-3.8033 -0.662319,1.07503 -2.645324,4.6501 0.19695,2.89839 0.940424,-0.83227 4.88049,-2.66419 2.533022,-0.10506 -0.977253,1.63592 -1.471139,3.55812 -2.759779,5.00381 z"
     id="front-body" />
  <path
     style="display:inline;fill:#ffffff;fill-opacity:1;stroke-width:0.125485"
     d="m 65.734099,31.995393 c 1.448233,0.46665 2.855676,1.17214 3.781635,2.42217 1.359544,1.67506 2.340352,3.78107 2.422175,5.95449 -0.07868,1.79367 -0.634914,3.64064 -1.7342,5.07 -1.614116,1.73355 -4.337988,2.60277 -6.571196,1.60782 -2.465042,-0.65636 -4.629811,-2.66167 -5.008778,-5.25157 -0.313244,-1.69621 -0.250105,-3.46409 0.05181,-5.15245 0.654897,-1.85611 2.018727,-3.51305 3.7455,-4.45731 1.056188,-0.57072 2.19564,-0.32649 3.313054,-0.19315 z"
     id="path5" />
  <path
     style="display:inline;fill:#ffffff;fill-opacity:1;stroke-width:0.125485"
     d="m 48.759998,25.508483 c 0.656472,0.25751 1.425362,0.2819 2.0037,0.70631 0.413252,0.41326 0.826507,0.82651 1.239759,1.23976 0.392418,1.7417 0.810377,3.47765 1.186879,5.22293 -0.04013,0.83735 -0.106219,1.67939 -0.362361,2.48221 -0.286191,1.14526 -0.721814,2.2521 -1.22746,3.31623 -0.323233,0.65386 -0.757437,1.32446 -1.550666,1.41579 -0.591976,0.29776 -1.262148,0.24111 -1.90298,0.29795 -0.754099,0.0344 -0.982263,-1.01578 -1.505075,-1.44137 -0.536428,-0.61081 -0.667071,-1.43394 -0.971206,-2.16474 -0.157723,-0.56828 -0.500543,-1.10793 -0.47971,-1.70852 -0.0057,-1.6518 0.0031,-3.30568 0.129188,-4.95354 0.272365,-0.80029 0.55589,-1.59707 0.868835,-2.3825 0.635969,-0.60532 1.188802,-1.33326 2.010139,-1.70329 0.186983,-0.10908 0.373971,-0.21815 0.560958,-0.32722 z"
     id="path4" />
  <path
     style="fill:#000000;fill-opacity:1;stroke-width:0.125485"
     d="m 49.841148,32.535973 c -0.43246,-0.18019 -0.86492,-0.36038 -1.297384,-0.54058 -0.288304,0.32435 -0.576612,0.64869 -0.86492,0.97304 -0.05351,0.8154 -0.141544,1.62952 -0.29545,2.43232 -0.06382,0.56121 -0.01744,1.12634 -0.02358,1.68935 0.179517,0.35647 0.237863,0.77221 0.486375,1.09325 0.246883,0.0843 0.489049,0.25165 0.738735,0.28661 0.346664,-0.104 0.693328,-0.208 1.039992,-0.312 0.252271,-0.54057 0.504538,-1.08115 0.756809,-1.62173 -0.01713,-0.68445 0.03551,-1.37261 -0.02857,-2.05456 -0.17068,-0.64857 -0.341333,-1.29714 -0.51204,-1.9457 z"
     id="left-eye" />
  <path
     style="fill:#000000;fill-opacity:1;stroke-width:0.125485"
     d="m 62.490641,37.184923 c 0.396481,0.95802 0.846231,1.90792 0.986401,2.94615 0.207803,0.9641 0.301109,1.95862 0.285434,2.94141 -0.182,0.68162 -0.474468,1.59657 -1.356279,1.52571 -0.680633,0.11121 -1.307378,-0.51618 -1.566399,-1.08871 -0.347527,-1.07131 -0.70212,-2.17444 -0.718467,-3.31008 0.08569,-0.97474 0.01379,-2.02845 0.497676,-2.91064 0.489913,-0.47224 1.265966,-0.0158 1.871634,-0.10384 z"
     id="right-eye" />
  <path
     style="fill:#000000;fill-opacity:1;stroke:#000000;stroke-width:0.125485;stroke-opacity:1"
     d="m 26.380131,48.868113 c -1.444865,0.78463 -2.923207,1.51742 -4.274894,2.46033 -0.965372,0.62414 -1.974769,1.2004 -2.800404,2.01146 -0.679694,0.66164 -1.52945,1.09204 -2.330732,1.58267 0.274737,0.43984 0.332443,1.01378 0.726904,1.37519 0.629267,-0.21409 1.275234,-0.42716 1.79385,-0.8598 1.86621,-1.2539 3.769208,-2.45598 5.571201,-3.80247 0.587327,-0.45525 1.347647,-0.61619 1.918042,-1.09137 0.223292,-0.24166 0.462495,-0.46844 0.693417,-0.70297 -0.43246,-0.32435 -0.864924,-0.64869 -1.297384,-0.97304 z"
     id="left-work-hand" />
  <path
     style="fill:url(#linearGradient14);stroke-width:0.125485"
     d="m 10.919644,54.375263 5.405762,-4.00027 4.216498,5.51388 6.486917,2.59477 -3.784034,7.24372 0.43246,7.67619 -9.514145,-0.75681 -5.7301113,4.10838 L 5.1895324,68.862713 0,64.646213 4.3246125,60.105373 3.6759182,52.429183 Z"
     id="star-back" />
  <path
     style="fill:#000000;fill-opacity:1;stroke:#000000;stroke-width:0.125485;stroke-opacity:1"
     d="m 41.516272,67.031483 c 0.684727,-0.10811 1.369458,-0.21623 2.054189,-0.32435 0.674591,0.48257 1.516431,1.20488 0.363991,1.66161 -2.478818,0.18776 -4.886492,0.8731 -7.34664,1.18505 -3.380415,0.14877 -6.763362,0.41928 -10.149188,0.24277 -0.941345,-0.005 -1.866365,-0.13656 -2.758231,-0.44483 -2.11695,-0.61848 -4.289074,-1.15627 -6.225439,-2.24462 -0.294462,-0.17912 0.427819,-0.5055 0.585408,-0.7501 0.43032,-0.71339 1.068638,-0.0654 1.631754,0.16106 1.12242,0.66252 2.436232,0.75228 3.678401,1.05177 1.88472,0.40416 3.828347,0.34716 5.74088,0.52701 2.193344,0.17414 4.395774,0.0901 6.590364,-0.0194 1.358428,-0.23201 2.724642,-0.44958 4.100235,-0.52222 0.590045,-0.13315 1.152686,-0.36094 1.734276,-0.52374 z"
     id="right-work-hand" />
  <path
     style="fill:url(#linearGradient12);stroke:#ff6600;stroke-width:0.125485;stroke-opacity:1"
     d="m 7.976966,55.641853 3.783277,-5.55978 5.799578,3.814 6.979774,0.30927 -1.182252,8.08658 2.940832,7.10369 -9.23111,2.42454 -4.053791,5.76886 -5.6657714,-6.38039 -6.2900867,-2.26823 2.584312,-5.71339 -3.14494985,-7.03235 z"
     id="star-front" />
</svg>
