<?xml version="1.0" encoding="UTF-8" standalone="no"?>
<!-- Created with Inkscape (http://www.inkscape.org/) -->

<svg
   version="1.1"
   id="svg1"
   width="612.56067"
   height="400.02969"
   viewBox="0 0 612.56067 400.02969"
   xmlns:xlink="http://www.w3.org/1999/xlink"
   xmlns="http://www.w3.org/2000/svg"
   xmlns:svg="http://www.w3.org/2000/svg">
  <defs
     id="defs1">
    <linearGradient
       id="linearGradient33">
      <stop
         style="stop-color:#ff0066;stop-opacity:1;"
         offset="0"
         id="stop33" />
      <stop
         style="stop-color:#ff0066;stop-opacity:0;"
         offset="1"
         id="stop34" />
    </linearGradient>
    <linearGradient
       id="linearGradient31">
      <stop
         style="stop-color:#37abc8;stop-opacity:1;"
         offset="0"
         id="stop31" />
      <stop
         style="stop-color:#37abc8;stop-opacity:0;"
         offset="1"
         id="stop32" />
    </linearGradient>
    <linearGradient
       id="linearGradient29">
      <stop
         style="stop-color:#37abc8;stop-opacity:1;"
         offset="0"
         id="stop29" />
      <stop
         style="stop-color:#37abc8;stop-opacity:0;"
         offset="1"
         id="stop30" />
    </linearGradient>
    <linearGradient
       id="linearGradient27">
      <stop
         style="stop-color:#ff00cc;stop-opacity:1;"
         offset="0"
         id="stop27" />
      <stop
         style="stop-color:#ff00cc;stop-opacity:0;"
         offset="1"
         id="stop28" />
    </linearGradient>
    <linearGradient
       xlink:href="#linearGradient27"
       id="linearGradient28"
       x1="101.72912"
       y1="264.96344"
       x2="371.07831"
       y2="264.96344"
       gradientUnits="userSpaceOnUse" />
    <linearGradient
       xlink:href="#linearGradient29"
       id="linearGradient30"
       x1="177.42993"
       y1="327.37973"
       x2="641.37262"
       y2="327.37973"
       gradientUnits="userSpaceOnUse" />
    <linearGradient
       xlink:href="#linearGradient31"
       id="linearGradient32"
       x1="402.69577"
       y1="493.35242"
       x2="620.99774"
       y2="493.35242"
       gradientUnits="userSpaceOnUse" />
    <linearGradient
       xlink:href="#linearGradient33"
       id="linearGradient34"
       x1="95.814323"
       y1="452.24295"
       x2="541.04791"
       y2="452.24295"
       gradientUnits="userSpaceOnUse" />
    <filter
       style="color-interpolation-filters:sRGB"
       id="filter23"
       x="-0.021932106"
       y="-0.022525568"
       width="1.0440232"
       height="1.050568">
      <feGaussianBlur
         stdDeviation="0.72263651"
         id="feGaussianBlur23" />
    </filter>
    <filter
       style="color-interpolation-filters:sRGB"
       id="filter24"
       x="-0.045077194"
       y="-0.04709231"
       width="1.1118377"
       height="1.094336">
      <feGaussianBlur
         stdDeviation="1.4384667"
         id="feGaussianBlur24" />
    </filter>
  </defs>
  <g
     id="layer3"
     transform="translate(-62.94649,-165.34478)">
    <path
       style="fill:#1a1a1a;stroke:#000000;stroke-opacity:0"
       id="path23"
       d="m 205.08878,317.00982 c 1.97088,-1.35469 4.29539,-1.82584 6.61251,-2.20338 2.35797,-0.57242 4.77489,-0.80535 7.19105,-0.95033 2.19744,-0.10523 4.39793,-0.10285 6.59727,-0.0967 2.08373,0.002 4.1675,0.006 6.25124,0.002 1.05567,-0.0349 3.49815,0.25521 4.21687,-0.81672 0.10926,-0.16296 0.12108,-0.37324 0.18162,-0.55985 -2.24493,-1.34285 -4.42629,-2.7982 -6.73479,-4.02856 -0.0898,-0.0479 -1.86872,0.22297 -1.89125,0.22678 -1.66062,0.28116 -3.31631,0.62326 -4.9688,0.94771 -3.28939,0.97034 -6.57106,1.94281 -9.96424,2.47082 -2.31148,0.30693 -4.64526,0.32862 -6.97274,0.3424 -2.07235,0.40018 -4.10976,0.9391 -6.20587,1.20682 -1.80351,0.17603 -3.45957,0.98105 -5.23925,1.33028 -1.36035,0.37052 -2.81746,0.46975 -4.12718,1.02518 -0.16909,0.0717 -0.61997,0.1943 -0.46586,0.29423 2.1954,1.42372 4.56337,2.56177 6.84506,3.84266 1.6383,-0.91747 3.33751,-1.74728 4.95114,-2.71326 0,0 -6.18346,-4.01073 -6.18346,-4.01073 v 0 c -1.62076,0.92458 -3.27702,1.81718 -4.97356,2.58831 1.88412,1.45129 3.70437,2.98949 5.65235,4.35386 0.097,0.0679 0.19564,-0.1376 0.30599,-0.18061 1.30982,-0.51061 2.7321,-0.64138 4.09004,-0.96567 1.74281,-0.405 3.39891,-1.16397 5.19864,-1.29328 2.05946,-0.31335 4.06038,-0.92148 6.13374,-1.13929 2.34086,-0.0247 4.68628,-0.0983 7.00318,-0.46433 3.36069,-0.60977 6.5976,-1.67045 9.89789,-2.53205 1.66238,-0.29122 3.3449,-0.65983 5.02709,-0.82417 3.34701,-0.32699 5.33006,2.02693 -4.12711,-3.80509 0.0796,-0.0422 0.28041,-0.20659 0.23878,-0.12668 -0.37408,0.71802 -3.21498,0.44049 -3.86052,0.49124 -2.08959,-0.008 -4.17923,-0.0124 -6.26881,-0.0128 -2.20186,0.013 -4.40603,0.014 -6.60446,0.15106 -2.42864,0.17959 -4.85031,0.47467 -7.22628,1.02301 -2.38373,0.45428 -4.72088,1.05349 -6.81913,2.32183 z" />
    <path
       style="fill:#ff8080;fill-opacity:1;stroke:#000000;stroke-opacity:0;filter:url(#filter24)"
       d="m 496.46429,205.87089 c 9.26091,-1.14321 18.62801,-2.14979 27.53623,-5.07246 3.50164,-4.0494 7.39488,-7.98835 9.40026,-13.05093 -1.43881,-6.24784 0.26722,-12.58176 0.74466,-18.83313 2.13822,8.86198 2.2832,18.74504 8.19276,26.20411 2.79381,3.7885 7.28453,5.79491 11.85449,6.4053 6.77906,1.42924 13.67288,2.20417 20.47768,3.4912 -4.88598,1.97089 -10.20239,2.54145 -15.2608,3.9587 -6.10828,0.33151 -13.48458,-0.92187 -18.11596,4.06545 -1.85057,2.60825 -1.62174,6.19536 -2.5768,9.22362 -1.60234,7.51498 -3.24527,15.02516 -5.22425,22.45157 -1.41051,-9.50071 -0.47213,-19.82162 -5.37545,-28.44459 -3.23734,-5.24201 -8.66404,-9.18541 -14.86651,-9.88636 -5.52117,-1.23765 -11.20154,-1.33658 -16.78631,-0.51248 z"
       id="path24-1" />
    <path
       style="fill:#1a1a1a;stroke:#000000;stroke-opacity:0"
       id="path22"
       d="m 517.39422,315.9618 c 2.40417,0.20585 4.80575,0.43664 7.21402,0.59039 2.01217,0.11249 4.02883,0.11098 6.04355,0.12306 1.75594,0.008 3.51189,8.7e-4 5.26784,0.002 1.99308,-0.005 3.98613,-0.0137 5.97922,-0.0103 1.68614,0.0237 3.33002,0.41789 5.01334,0.55917 0.30935,0.0204 0.61871,0.0407 0.92806,0.0611 0,0 -5.96605,-4.40214 -5.96605,-4.40214 v 0 c -0.30625,-0.0251 -0.61251,-0.0502 -0.91876,-0.0753 -1.67943,-0.18435 -3.34103,-0.58207 -5.04119,-0.49084 -2.00093,0.004 -4.00183,-0.004 -6.00276,-0.006 -1.75118,0.004 -3.50235,0.003 -5.25353,0.003 -2.00108,-0.006 -4.00291,-0.0238 -6.00098,-0.14563 -2.43793,-0.15264 -4.8674,-0.39594 -7.30146,-0.59623 z" />
    <path
       style="fill:#00a5ff;fill-opacity:1;stroke:#000000;stroke-opacity:0;filter:url(#filter23)"
       d="m 217.46595,480.69133 c 1.06764,9.89177 1.6333,19.95197 5.34285,29.27207 3.64854,7.13673 12.66657,8.73307 19.64049,10.85091 4.71869,0.32898 9.43186,0.78133 14.1471,1.18136 -9.42814,1.11219 -19.67522,1.24357 -28.26471,5.28322 -4.59904,4.84728 -7.36174,10.88952 -7.53716,17.61519 -1.3318,4.20612 -1.6206,15.67681 -2.97835,15.15574 -2.7816,-8.55221 -2.03311,-17.80634 -4.53774,-26.29533 -3.88304,-8.53292 -14.26293,-9.42075 -22.04481,-12.37723 -5.02575,-2.22491 -10.47994,-1.41878 -15.79665,-1.5555 10.04229,-0.9211 20.22106,-0.93432 30.09775,-3.18308 6.80642,-4.30649 12.34275,-11.92613 11.23495,-20.31923 0.13264,-5.21345 0.47823,-10.41816 0.69628,-15.62812 z"
       id="path25-8" />
    <path
       style="fill:#1a1a1a;stroke:#000000;stroke-opacity:0"
       id="path19"
       d="m 514.41447,315.96578 c 2.16479,0.0343 4.31039,-0.28919 6.46137,-0.49261 1.96242,-0.18393 3.93393,-0.22472 5.90357,-0.24749 2.19576,-0.0255 4.39163,-0.0208 6.58747,-0.0116 2.21358,-0.006 4.42716,7.3e-4 6.64074,0 1.8799,0.0887 3.89059,0.16182 5.67845,0.7881 0.86791,0.35984 1.76034,0.62207 2.66955,0.8497 0,0 -5.87653,-4.51528 -5.87653,-4.51528 v 0 c -0.89412,-0.26833 -1.77665,-0.566 -2.66434,-0.8548 -1.89062,-0.42668 -3.84459,-0.63161 -5.78308,-0.60973 -2.21658,-0.002 -4.43315,0.003 -6.64972,-0.007 -2.20061,0.006 -4.40125,7.9e-4 -6.60181,0.0154 -1.97741,0.0356 -3.95656,0.094 -5.92409,0.30958 -2.15729,0.22525 -4.31703,0.50517 -6.49124,0.38037 z" />
    <path
       style="display:inline;fill:#0000ff;fill-opacity:1;stroke:#000000;stroke-opacity:0"
       d="m 471.73913,393.47826 c 6.25293,8.89546 10.91516,19.60575 20.57537,25.44657 7.66881,5.27978 16.49945,9.7456 26.04641,9.48297 4.20661,-0.0145 8.44033,0.26185 12.61906,0.32073 8.5368,-1.10752 17.82491,-2.48682 24.16669,-8.8978 6.50602,-4.88197 12.01118,-10.98858 17.15791,-17.23301 2.76044,-4.24674 5.26757,-10.23486 1.80795,-14.8303 -4.48366,-4.8206 -6.79709,-11.2687 -11.3996,-16.02563 -4.23389,-2.02851 -8.92703,-8.28267 -13.49146,-9.60997 -2.28026,3.83079 0.61747,12.20828 -3.23531,16.55818 -2.33539,4.06743 -1.4305,10.26216 -4.91919,13.50818 -5.81928,4.92383 -12.21872,2.14074 -19.46598,1.85034 -6.69242,-0.66293 -9.58505,-5.87536 -18.54649,-7.03671 -2.01743,-3.61018 -0.581,-9.59905 -2.35675,-13.01468 l -9.39339,1.36519 c -1.93068,-3.08248 -9.18124,-8.3804 -9.7603,-2.43746 -3.40298,6.68921 -5.66921,14.32207 -9.80492,20.5534 z"
       id="path2" />
    <path
       style="display:inline;fill:#000000;fill-opacity:1;stroke:#000000;stroke-opacity:0"
       d="m 550,364.49275 c 4.89996,3.91374 11.47789,6.13824 14.95929,11.51669 3.2119,5.14119 7.77113,9.6789 8.9955,15.7929 0.79468,2.66571 1.51272,6.46347 2.37979,1.58263 3.32737,-7.80509 3.77176,-16.3765 4.1653,-24.73995 0.51035,-5.30519 0.94966,-10.57521 -2.17184,-15.27336 -3.77768,-8.25358 -7.87164,-16.41778 -12.81509,-24.03339 -4.3392,-3.22322 -7.77167,-7.94648 -12.84829,-9.98086 -4.89048,-2.25687 -9.97888,-4.06723 -15.39917,-4.37838 -10.37273,-1.58664 -20.89189,-2.40606 -31.36415,-1.33876 -4.77874,-0.0617 -12.35016,4.1613 -16.42994,6.3435 -6.47774,7.13833 -9.84031,13.33458 -14.18832,22.05313 -3.33065,5.15833 -4.68532,11.25178 -5.78214,17.21087 -0.11194,7.97993 -1.34345,16.04154 0.39697,23.93671 0.2404,3.83277 1.72836,10.96696 4.23094,11.79127 1.35137,-4.91311 2.3973,-10.03567 5.57733,-14.16485 2.44275,-3.97429 4.86681,-7.96019 7.25034,-11.97032 4.02124,-1.4974 10.26227,-7.0432 13.07072,-5.48811 -0.0315,6.6983 -0.53499,13.69278 1.93509,20.04993 2.86285,4.32812 5.98391,8.50022 11.14847,10.12812 4.02887,1.58407 8.49612,1.44398 12.6937,2.44904 5.17971,0.57927 9.84514,-3.51024 14.07801,-6.15499 4.84282,-3.10868 7.39474,-8.7589 8.31488,-14.27621 0.77677,-3.65487 1.18477,-7.37336 1.80261,-11.05561 z"
       id="path1" />
    <path
       style="display:inline;fill:#f9f9f9;fill-opacity:1;stroke:#000000;stroke-opacity:0"
       d="m 497.10145,326.08696 c -4.44078,2.24862 -10.10319,2.72434 -13.24739,7.01816 -1.93121,2.03306 -4.09245,4.27323 -4.33854,7.21786 -1.56816,4.77344 -1.93002,9.81418 -2.70393,14.74948 1.47722,3.2219 2.15321,6.80137 4.09842,9.80641 3.70633,3.01139 7.41265,6.02278 11.11898,9.03417 4.34782,0 8.69565,0 13.04347,0 4.01654,-2.52599 9.13371,-3.79477 11.80673,-8.03731 2.26639,-2.52002 4.69842,-5.22094 5.21011,-8.70153 1.29544,-3.24145 0.93554,-6.86677 -0.25753,-10.07336 -1.19542,-4.5017 -1.76369,-9.32459 -4.16298,-13.38968 -1.92559,-2.85018 -4.78956,-5.3286 -8.28456,-5.86523 -3.86147,-1.7381 -8.19046,-1.21497 -12.28278,-1.75897 z"
       id="path3" />
    <path
       style="fill:#f9f9f9;fill-opacity:1;stroke:#000000;stroke-opacity:0"
       d="m 547.10145,383.33333 -10.86957,3.62319 -5.07246,7.24638 c -0.52647,4.58468 -1.00151,9.17512 -1.44928,13.76811 3.17111,3.21875 5.6232,7.43353 10.09279,9.04077 3.21308,2.34694 7.18726,1.95471 10.91724,1.78911 3.18624,-0.85349 10.73932,-3.18078 11.56866,-7.45539 0.73727,-5.69519 0.74309,-7.45491 2.6878,-12.80902 -1.17159,-4.31098 -4.93064,-7.87821 -7.36096,-11.71232 -2.95881,-1.94858 -7.10633,-2.21602 -10.51422,-3.49083 z"
       id="path4" />
    <path
       style="fill:#f9f9f9;fill-opacity:1;stroke:#000000;stroke-opacity:0"
       d="m 528.26087,409.42029 c -2.33746,0.0478 -4.72144,-1.17639 -7.01131,-0.26266 -0.94522,0.44585 -1.67789,1.22545 -2.46422,1.8959 -2.28268,2.25383 -3.44102,5.438 -3.69635,8.59172 -0.82272,1.36302 -0.42427,3.15448 0.691,4.23384 1.27002,1.40555 2.98176,2.25812 4.59084,3.1969 1.21164,0.78973 2.63732,1.50929 4.12467,1.18485 1.97976,0 3.95952,0 5.93928,0 2.12229,-0.86936 4.63604,-1.54262 5.88922,-3.64291 0.46588,-0.87194 0.56796,-1.84623 1.22185,-2.61734 1.01376,-1.91628 0.22422,-4.16407 -0.84003,-5.87353 -0.96854,-1.56537 -1.9951,-3.19893 -3.64299,-4.13075 -1.54097,-0.96822 -3.27283,-1.58705 -4.80196,-2.57602 z"
       id="path5" />
    <path
       style="fill:#f9f9f9;fill-opacity:1;stroke:#000000;stroke-opacity:0"
       d="m 480.43478,397.82609 12.31884,-10.86957 18.11595,-9.42029 12.31884,-0.72464 9.42029,2.89855 -7.97102,0.72464 -13.76811,3.62319 -13.04348,8.69565 -4.34783,6.52174 -4.34783,8.69565 v 5.79711 l -8.69565,-6.52174 -2.89855,-4.34783 z"
       id="path6" />
    <path
       style="fill:#000000;fill-opacity:1;stroke:#000000;stroke-opacity:0"
       d="m 443.47826,345.65217 c 5.6649,-6.01757 13.0374,-9.76729 20.3002,-13.4183 5.59501,-6.54182 14.34625,-7.65269 21.44037,-11.83719 8.72181,-3.74344 18.4509,-4.28784 27.56102,-6.86056 8.92483,-2.48301 18.04888,0.72735 26.94455,1.95963 9.98867,2.09204 20.17882,4.08489 28.99456,9.49273 12.07137,5.94198 23.34115,13.56312 33.60602,22.23278 6.357,5.44241 11.40351,14.74007 20.76185,14.75896 7.524,0.87163 -2.51102,-9.23874 -5.34425,-10.93887 -5.94181,-4.88431 -11.13216,-10.57466 -16.2933,-16.25874 8.53798,4.14254 18.59363,2.9234 26.27872,-2.52599 7.0394,-2.96504 12.39186,-8.3503 17.23665,-14.06917 3.23556,-3.32846 -6.00717,2.23269 -8.0802,2.73948 -7.10552,3.36634 -13.89794,7.45908 -21.83109,8.52589 -9.67421,0.83201 -19.70941,0.29922 -29.07216,-2.30969 -3.68247,-4.67968 -9.27847,-6.73209 -14.70507,-8.77761 -15.27578,-6.46057 -31.28928,-11.9835 -48.06914,-12.13018 -13.04614,-1.16466 -26.00623,2.22815 -38.489,5.68174 -14.61962,5.60756 -29.64441,12.12802 -40.08628,24.23038 -3.76755,2.29084 -1.84045,6.15052 -1.15345,9.50471 z"
       id="path7" />
    <path
       style="fill:#000000;fill-opacity:1;stroke:#000000;stroke-opacity:0"
       d="m 441.30435,296.37681 c 14.63139,-3.41121 27.83237,-11.07907 42.54801,-14.16525 7.60079,-1.70856 13.97192,-7.56561 22.13691,-6.66128 21.26968,-0.90165 41.95537,-7.86015 63.32986,-7.26162 21.3674,1.21595 43.04083,-0.72421 64.08712,4.07452 13.42311,2.45548 26.50937,6.3917 39.78216,9.52088 7.64647,-9.051 -10.91336,-8.25163 -16.18247,-10.7183 -15.36809,-3.65545 -31.01122,-6.95736 -46.87022,-6.70878 -11.54448,-0.69674 -23.01731,-2.95863 -34.61016,-1.5954 -18.1167,0.43795 -36.3204,1.40464 -53.96579,5.83649 -16.59273,3.27869 -33.33631,6.18906 -49.15917,12.36944 -10.82391,4.15546 -21.98379,7.88487 -31.09625,15.3093 z"
       id="path8" />
    <path
       style="display:inline;fill:#000000;fill-opacity:1;stroke:#000000;stroke-opacity:0"
       d="m 202.89855,314.49275 c -7.24638,1.69082 -14.49275,3.38165 -21.73913,5.07247 -5.92934,6.63234 -12.96831,12.41937 -17.23935,20.35548 -2.82425,5.4652 -4.32586,11.52305 -6.57121,17.24631 -1.88855,6.02898 -1.3067,12.51477 -1.57963,18.76606 -0.0636,4.46691 -0.58139,9.2092 2.7383,12.77134 1.29257,2.3692 2.62808,5.74613 3.87418,1.38546 3.77699,-7.68311 8.50132,-14.88379 14.56275,-20.96375 3.15177,-3.20894 5.98326,-6.78141 9.65163,-9.40081 1.06036,3.40394 0.59056,7.87899 1.27436,11.67076 0.88318,4.08732 -0.0842,9.0109 3.1255,12.16064 2.69603,3.32702 4.75353,7.77904 9.41195,8.47935 4.47248,1.63766 8.92018,3.342 13.36022,5.06539 4.06637,-1.36561 8.76337,-1.47278 12.4266,-3.67892 3.58726,-3.36307 7.17453,-6.72613 10.7618,-10.0892 0.81653,-4.51248 2.98165,-9.0506 1.42642,-13.65607 -0.14821,-3.10923 -3.43786,-10.93259 1.7063,-6.04401 4.64736,3.01216 9.72147,5.58764 12.79267,10.37593 4.06886,4.40947 4.37914,10.98199 8.59305,15.31962 1.94743,3.17158 3.64693,5.41325 3.70495,0.32129 1.42557,-7.81005 3.45314,-15.5971 2.97181,-23.5997 -0.0627,-5.46825 -1.82919,-10.73793 -3.04226,-16.02726 -2.42546,-5.77976 -4.91814,-11.6848 -9.05112,-16.49474 -2.97792,-4.71279 -6.54773,-8.98138 -10.97841,-12.39352 -3.4122,-3.69357 -7.48168,-6.2612 -12.56902,-6.60489 -4.82339,-0.92237 -9.64547,-2.41551 -14.51225,-2.78271 -5.03337,0.91516 -10.06674,1.83032 -15.10011,2.74548 z"
       id="path9" />
    <path
       style="display:inline;fill:#0000ff;fill-opacity:1;stroke:#000000;stroke-opacity:0"
       d="m 175.06307,368.62541 c 3.28991,2.90438 9.73162,4.59141 12.41881,7.47192 1.31313,4.30623 6.86601,4.54869 10.08587,7.78961 2.43557,5.19231 5.22771,3.63488 10.06544,5.53123 3.13608,1.49806 5.15286,2.87303 8.6054,2.60587 1.91801,-0.27211 4.69251,6.58882 5.97665,4.69403 4.06956,-3.79258 10.01442,-5.17227 13.06399,-10.07774 2.84034,-3.58725 1.88927,-8.47161 1.0587,-13.07608 -0.37722,-4.15462 1.31658,-12.64387 0.61859,-16.74821 5.33167,4.22211 15.17956,10.80681 18.57091,17.05973 3.09644,4.6843 3.66288,10.084 6.27204,15.05856 2.59282,7.17829 -2.39853,14.1248 -6.66484,19.48035 -4.39203,4.33351 -9.38787,8.11633 -14.62093,11.39878 -7.1677,3.80801 -14.90026,7.12882 -23.04868,7.85829 -6.0488,0.19159 -12.22068,1.18702 -18.14203,-0.58333 -7.71936,-1.71183 -14.74046,-5.69871 -21.39423,-9.83154 -4.50559,-2.43142 -7.15311,-6.81258 -9.79825,-10.98895 -2.8899,-4.27237 -5.93628,-8.43933 -8.71022,-12.78967 2.34339,-5.2397 4.52206,-10.78828 8.96555,-14.6509 2.49794,-2.67147 4.0772,-7.63064 6.67723,-10.20195 z"
       id="path10" />
    <path
       style="fill:#f9f9f9;fill-opacity:1;stroke:#000000;stroke-opacity:0"
       d="m 231.88406,382.6087 c -3.01593,3.50694 -6.114,6.98019 -9.70866,9.91057 -2.05869,3.55495 -2.43927,7.73493 -3.21467,11.68738 -0.13138,3.07984 1.20083,6.03465 2.86841,8.54579 2.22818,2.48044 5.91478,2.94666 8.04279,5.55786 2.38494,1.87547 5.6056,0.9521 8.24792,0.2364 3.47776,-1.07815 6.82252,-2.8644 9.18914,-5.69213 2.08475,-2.13054 4.21279,-4.2185 6.3142,-6.33283 -0.30366,-3.6739 -0.64278,-7.53173 -2.62253,-10.74535 -1.40642,-4.21756 -4.77647,-7.29204 -7.53039,-10.62939 -3.13462,-2.85839 -7.71869,-2.01099 -11.58621,-2.5383 z"
       id="path11" />
    <path
       style="fill:#f9f9f9;fill-opacity:1;stroke:#000000;stroke-opacity:0"
       d="m 208.69565,408.69565 c -1.44927,2.17391 -2.89855,4.34783 -4.34782,6.52174 0.0473,2.01032 -1.46638,4.37189 0.0789,6.1232 1.51905,1.99741 2.88092,4.10693 4.26896,6.19564 2.20513,-0.32334 4.40483,-0.85832 6.55982,-0.25162 2.06447,-0.52511 4.30887,-0.94327 5.91547,-2.45775 2.58658,-1.16589 2.15134,-3.95991 1.83861,-6.31016 -0.10054,-2.15054 -1.3838,-3.86831 -2.51731,-5.58486 -0.9416,-1.93106 -3.30644,-2.01621 -5.08655,-2.6834 -2.21032,-0.62558 -4.47664,-1.02196 -6.71004,-1.55279 z"
       id="path12" />
    <path
       style="fill:#f9f9f9;fill-opacity:1;stroke:#000000;stroke-opacity:0"
       d="m 173.91304,330.43478 c -3.35379,3.83532 -7.61171,7.36497 -8.47577,12.6929 -0.6355,6.23372 -0.18437,13.02152 3.02112,18.53151 3.77837,4.00077 8.30353,8.61797 13.79024,9.67881 3.73114,-0.011 7.12841,3.53945 10.79008,1.61141 4.72414,-2.9016 11.12869,-3.44056 14.34247,-8.37988 3.79783,-3.30673 5.13085,-7.58152 4.11158,-12.53953 0.48693,-6.48289 -2.98444,-11.94966 -6.46277,-17.10601 -2.60945,-3.94578 -6.15359,-7.18982 -10.57717,-8.95759 -3.95439,-0.8796 -9.00119,-2.34606 -12.81219,0.0526 -2.57587,1.47192 -5.15173,2.94384 -7.72759,4.41576 z"
       id="path13" />
    <path
       style="fill:#f9f9f9;fill-opacity:1;stroke:#000000;stroke-opacity:0"
       d="m 168.84058,402.89855 8.69565,-5.7971 7.24638,-7.24638 7.97101,-3.62319 5.07247,-2.89855 4.34782,-2.89855 5.7971,-0.72464 6.52174,-1.44927 5.07247,2.17391 6.52174,6.52174 -7.24638,-2.89855 h -6.52174 l -7.24638,4.34783 -5.7971,2.17391 -10.86956,8.69565 -5.07247,3.62319 -2.89855,3.62319 -2.89855,5.07246 v 1.44928 l -3.62319,-2.89855 z"
       id="path14" />
    <path
       style="fill:#f9f9f9;fill-opacity:1;stroke:#000000;stroke-opacity:0"
       d="M 292.02899,344.92754 Z"
       id="path15" />
    <path
       style="fill:#1a1a1a;fill-opacity:1;stroke:#000000;stroke-opacity:0"
       d="m 287.68116,332.6087 c -8.69185,-5.4106 -16.04458,-13.33597 -26.20233,-16.06973 -17.34297,-8.21549 -36.96981,-15.87024 -56.36017,-10.74558 -14.78247,3.20712 -29.37312,7.93518 -42.55216,15.46698 -11.19512,0.52537 -20.96315,8.15204 -32.31695,7.03191 -8.86223,0.52237 -18.16526,-0.31338 -25.66969,-5.49529 -3.26349,-1.07827 -10.841167,-8.50636 -11.890147,-5.28628 5.718243,9.82616 15.575367,17.0972 26.882667,18.95074 4.04376,2.09036 11.85433,-1.6156 13.81769,1.41542 -5.23057,5.13812 -11.58333,9.07109 -16.70299,14.29069 -4.32827,2.85154 -4.38186,12.81004 2.25555,7.54238 10.01443,-6.33765 18.24034,-15.08357 28.00038,-21.71197 16.18538,-7.73114 32.04751,-16.52544 49.4338,-21.33126 11.10775,-7.90985 24.93171,-1.66754 37.28198,-2.86764 21.45895,5.79165 42.17705,16.30777 56.92092,33.30242 9.92017,1.406 4.00148,-8.35524 -0.60195,-11.382 -0.83924,-0.97525 -1.71773,-1.94831 -2.2966,-3.11079 z"
       id="path16" />
    <path
       style="fill:#1a1a1a;fill-opacity:1;stroke:#000000;stroke-opacity:0"
       d="m 292.75362,295.65217 c -13.53429,-8.34315 -28.09552,-15.79593 -44.11467,-17.60661 -10.43376,-2.14983 -20.08384,-7.20551 -30.82797,-7.92437 -13.34298,-1.33545 -26.33036,-5.28193 -39.81144,-5.18989 -17.0462,0.34817 -34.02389,-5.70273 -50.98761,-1.83614 -19.67045,3.2536 -39.945115,3.14655 -59.123687,9.09023 -8.030317,-1.08146 -3.887692,10.82559 2.335071,5.76018 9.239768,-3.46171 18.731599,-5.68684 28.539605,-6.42967 14.906491,-2.74746 30.073641,-2.91804 45.168061,-2.84145 11.69782,-0.6318 23.47731,-0.5892 35.04176,1.37346 12.55756,0.31628 25.32505,-0.13851 37.46746,3.67711 11.97157,3.41048 24.02372,6.54806 36.05384,9.68798 9.09683,4.57511 19.5288,5.91163 28.29542,10.76092 3.53654,2.87657 8.30671,6.05844 11.96416,1.47825 z"
       id="path17" />
    <path
       style="fill:#1a1a1a;fill-opacity:1;stroke:#000000;stroke-opacity:0"
       id="path20"
       d="m 130.43769,416.68644 c 0.30139,-0.005 0.60376,-0.0394 0.90417,-0.0146 0.65637,0.0541 2.39693,0.41043 2.93233,0.51732 1.80229,0.35983 3.58652,0.70586 5.36505,1.17048 4.11852,1.18157 8.33454,1.9935 12.43964,3.21463 3.44252,0.97887 6.80904,2.20886 10.2899,3.04961 2.67409,0.55132 5.27541,1.41419 7.93546,2.0504 2.01123,0.45107 4.08248,0.55453 6.10782,0.91975 1.19584,0.21564 2.37323,0.52348 3.56164,0.77688 3.82123,0.85577 7.75152,1.05418 11.65228,1.22264 1.68245,0.15198 3.38754,-0.0229 5.06954,0.10077 1.41993,0.10441 2.8425,0.45375 4.2358,0.73089 3.17211,0.39472 6.35944,0.55516 9.53567,0.90461 4.16062,0.38078 8.34967,0.40774 12.52558,0.46251 3.94582,0.0514 7.89201,0.0578 11.8381,0.0665 3.56106,-0.0137 7.12215,2.5e-4 10.68321,-0.008 4.24536,-0.4718 8.43658,-1.44561 12.55908,-2.55055 4.05004,-1.04752 8.04016,-2.30089 12.05723,-3.46521 3.20227,-0.89644 6.45367,-1.62394 9.62933,-2.61327 1.91636,-0.80947 4.0026,-1.0766 5.95763,-1.7547 0.18881,-0.0655 2.44925,-0.99103 2.67301,-1.08237 1.93733,-0.73727 3.7573,-1.69005 5.73892,-2.32757 0,0 -6.11182,-4.14189 -6.11182,-4.14189 v 0 c -1.95664,0.69862 -3.79153,1.64929 -5.72938,2.38779 -2.79691,1.14372 -5.70181,1.87658 -8.57693,2.79413 -3.17327,0.96292 -6.40167,1.73046 -9.59313,2.63053 -3.96763,1.21764 -7.94,2.41837 -11.94357,3.51349 -4.11833,1.05225 -8.30848,1.98058 -12.55101,2.3301 -3.56336,-0.006 -7.12676,0.0121 -10.69013,0.003 -3.91932,0.0108 -7.83879,0.0194 -11.75798,-0.0215 -4.19859,-0.0675 -8.40715,-0.11492 -12.58418,-0.58985 -3.17545,-0.33938 -6.3765,-0.43002 -9.52837,-0.97204 -3.0839,-0.55676 -6.16291,-0.72587 -9.29743,-0.69469 -3.88339,-0.17203 -7.78037,-0.42729 -11.57707,-1.31848 -3.22501,-0.69605 -6.48127,-1.14631 -9.71972,-1.76286 -2.64237,-0.67124 -5.24662,-1.49505 -7.91858,-2.03976 -3.43205,-0.8821 -6.77991,-2.05101 -10.19112,-3.00809 -4.13853,-1.16386 -8.35475,-2.0381 -12.48987,-3.22091 -3.10275,-0.74991 -6.27531,-1.51067 -9.46979,-1.64699 z" />
    <path
       style="fill:#1a1a1a;fill-opacity:1;stroke:#000000;stroke-opacity:0"
       id="path21"
       d="m 446.89029,414.85705 c 3.63566,2.81518 7.61584,5.36563 12.0618,6.63642 0.47166,0.10137 0.94922,0.17837 1.41498,0.30409 0.99996,0.26993 1.96758,0.64934 2.96216,0.93846 1.72565,0.50164 3.4569,0.87799 5.22175,1.20893 3.18887,0.52727 6.41519,0.62898 9.63918,0.67422 3.20704,0.035 6.41433,0.005 9.62149,0.002 2.54275,-0.009 5.08543,0.0174 7.62817,0.0176 2.56407,-0.0228 5.12554,0.413 7.61885,0.98393 1.27233,0.37237 2.61111,0.58355 3.87415,0.98379 1.22871,0.38936 2.40838,0.96191 3.63843,1.36481 3.12057,0.84297 6.38688,0.88355 9.59822,0.94214 2.48456,-0.16908 5.00522,-0.11006 7.48217,-0.3959 0.37779,-0.0436 3.08247,-0.54654 3.42323,-0.60907 4.14309,-0.78196 8.3588,-0.94452 12.56165,-1.07842 5.94256,0.18685 11.80707,-0.70151 17.70221,-1.27736 6.31802,-0.4031 12.59645,-1.18292 18.85123,-2.1367 5.15628,-0.83956 10.20108,-2.18347 15.24533,-3.52071 3.319,-0.92027 6.34264,-2.59385 9.56953,-3.74774 0.39639,-0.14921 0.79278,-0.29841 1.18917,-0.44761 0,0 -6.10888,-4.10763 -6.10888,-4.10763 v 0 c -0.39147,0.15055 -0.78294,0.3011 -1.1744,0.45165 -3.14871,1.22174 -6.12973,2.85978 -9.39734,3.78095 -5.01913,1.35489 -10.04491,2.70721 -15.19765,3.46143 -6.1849,0.99936 -12.38907,1.8379 -18.64808,2.22564 -5.94314,0.52189 -11.86934,1.26464 -17.84918,1.11801 -4.25379,0.12359 -8.51747,0.30426 -12.70877,1.1027 -3.56763,0.61239 -7.16975,0.8968 -10.79278,0.90395 -3.20668,-0.11775 -6.47091,-0.19474 -9.55379,-1.18308 -2.48258,-0.87462 -4.94388,-1.80372 -7.54847,-2.26888 -2.55523,-0.51434 -5.14428,-0.95347 -7.76079,-0.89437 -2.51748,0.003 -5.03481,0.0369 -7.5523,0.0389 -3.20563,0.0109 -6.41133,0.0143 -9.61688,-0.0162 -3.19256,-0.0659 -6.3936,-0.19576 -9.5437,-0.76252 -3.25616,-0.6591 -6.39593,-1.68478 -9.59804,-2.55202 -2.76736,-0.93672 -6.83066,-3.49108 3.00005,2.23355 0.57995,0.33771 -1.1331,-0.71976 -1.68963,-1.09482 -0.21347,-0.14386 -0.43348,-0.27778 -0.65021,-0.41667 z" />
    <path
       style="fill:#ff0066;fill-opacity:1;stroke:#000000;stroke-opacity:0"
       d="m 492.02899,209.42029 c 9.26091,-1.14321 18.62801,-2.14979 27.53623,-5.07246 3.50164,-4.0494 7.39488,-7.98835 9.40026,-13.05093 -1.43881,-6.24784 0.26722,-12.58176 0.74466,-18.83313 2.13822,8.86198 2.2832,18.74504 8.19276,26.20411 2.79381,3.7885 7.28453,5.79491 11.85449,6.4053 6.77906,1.42924 13.67288,2.20417 20.47768,3.4912 -4.88598,1.97089 -10.20239,2.54145 -15.2608,3.9587 -6.10828,0.33151 -13.48458,-0.92187 -18.11596,4.06545 -1.85057,2.60825 -1.62174,6.19536 -2.5768,9.22362 -1.60234,7.51498 -3.24527,15.02516 -5.22425,22.45157 -1.41051,-9.50071 -0.47213,-19.82162 -5.37545,-28.44459 -3.23734,-5.24201 -8.66404,-9.18541 -14.86651,-9.88636 -5.52117,-1.23765 -11.20154,-1.33658 -16.78631,-0.51248 z"
       id="path24" />
    <path
       style="fill:#6600ff;fill-opacity:1;stroke:#000000;stroke-opacity:0"
       d="m 211.5942,485.50725 c 1.06764,9.89177 1.6333,19.95197 5.34285,29.27207 3.64854,7.13673 12.66657,8.73307 19.64049,10.85091 4.71869,0.32898 9.43186,0.78133 14.1471,1.18136 -9.42814,1.11219 -19.67522,1.24357 -28.26471,5.28322 -4.59904,4.84728 -7.36174,10.88952 -7.53716,17.61519 -1.3318,4.20612 -1.6206,15.67681 -2.97835,15.15574 -2.7816,-8.55221 -2.03311,-17.80634 -4.53774,-26.29533 -3.88304,-8.53292 -14.26293,-9.42075 -22.04481,-12.37723 -5.02575,-2.22491 -10.47994,-1.41878 -15.79665,-1.5555 10.04229,-0.9211 20.22106,-0.93432 30.09775,-3.18308 6.80642,-4.30649 12.34275,-11.92613 11.23495,-20.31923 0.13264,-5.21345 0.47823,-10.41816 0.69628,-15.62812 z"
       id="path25" />
    <path
       style="fill:#b380ff;fill-opacity:1;stroke:#000000;stroke-opacity:0"
       d="m 323.91304,423.18841 c 0.21526,6.21448 -0.84501,13.04627 2.14152,18.72221 3.0543,3.5294 6.3595,7.19889 11.4907,6.76466 2.16668,0.50277 8.70548,0.93828 7.94284,1.48611 -6.42245,0.68649 -14.15778,0.26297 -18.54052,5.97617 -4.5646,4.65263 -3.17357,11.54113 -4.58887,17.34381 -1.47986,-6.21261 -2.24779,-12.74153 -5.37438,-18.41873 -4.06449,-2.22569 -9.08559,-2.18442 -12.68896,-5.43621 -2.54588,-1.56272 -8.67911,-2.62296 -9.50016,-3.24962 6.08274,0 12.16549,0 18.24824,0 3.689,-2.32185 7.23698,-5.16467 7.32864,-9.96072 1.19283,-4.40587 2.36753,-8.81661 3.54095,-13.22768 z"
       id="path26" />
    <path
       style="fill:url(#linearGradient28);fill-opacity:1;stroke:#000000;stroke-opacity:0"
       d="m 242.02899,221.73913 c 25.71944,9.76595 50.45147,21.98103 75.49197,33.24912 9.73729,3.51014 7.9666,17.32322 -3.26958,13.82053 -17.28603,0.89333 -34.43029,-2.48478 -51.67508,-3.25769 -13.10034,9.03743 -28.75748,0.70938 -42.59641,-1.53658 -12.44588,-0.45639 -24.89158,-3.47209 -35.35765,-10.47556 -12.07085,-7.76504 -23.33552,-16.67756 -35.28272,-24.62127 -10.83711,-9.19925 -16.69943,4.8435 -20.55786,13.20993 -4.86802,9.58326 -7.22718,20.38097 -12.02911,29.85951 -2.62354,4.65309 -17.807897,8.56618 -13.87809,13.18781 13.75347,-1.49691 27.47989,2.12946 39.44532,8.90035 10.83765,4.66783 20.35548,14.24193 32.71177,14.09565 16.46633,-0.68367 30.52354,-10.82202 46.58886,-13.51607 11.26385,-2.89977 23.22954,-10.43604 34.9529,-5.64019 4.9363,8.53193 16.00254,-1.73575 23.08769,-3.05431 30.3647,-6.78428 60.92175,-14.16931 89.90422,-25.81543 -34.80399,-10.41409 -69.8195,-20.16513 -104.20008,-31.92914 -7.73111,-2.32554 -15.50697,-4.50508 -23.33615,-6.47666 z"
       id="path27" />
    <path
       style="fill:url(#linearGradient30);fill-opacity:1;stroke:#000000;stroke-opacity:0"
       d="m 365.94203,262.31884 c 23.37258,4.57428 45.1093,15.08094 68.53717,19.57257 19.11477,6.79112 38.93933,11.66326 59.0648,8.8662 22.54959,3.46387 44.14945,11.39111 66.33377,16.67174 27.28358,7.62699 54.50935,17.1376 78.15844,33.07941 7.79384,13.05084 -1.67778,33.83051 -13.97283,38.49942 -0.6061,9.39729 -3.96067,16.54896 -11.46194,6.07229 -14.77971,-13.3589 -30.23658,-28.08765 -51.1478,-29.92286 -28.29393,-7.6176 -57.24866,-13.27848 -86.70181,-12.52936 -24.58146,-0.84356 -49.043,-2.60229 -73.24536,-7.15328 -12.43824,-5.48226 -33.98925,5.58036 -14.88688,15.49987 21.05443,12.671 45.28894,18.77594 67.39955,29.37852 7.27849,3.28373 29.91145,12.59773 26.85917,12.08359 -37.09612,-11.27793 -75.0129,-19.80606 -111.46221,-33.16836 -25.21394,-8.76365 -50.77544,-16.56424 -76.07202,-24.97822 -15.95519,-8.89941 -33.69323,-12.446 -51.29802,-16.38681 -21.07118,-5.25992 -42.60403,-10.74032 -64.50983,-9.20791 22.85036,-4.97167 39.95134,-19.94484 62.01933,-27.47405 11.47807,-2.15369 21.09635,13.27605 32.06068,3.87291 20.20452,-6.08893 42.27066,-6.89176 62.1502,-14.00424 10.68861,-3.05086 21.70252,-4.99541 32.17559,-8.77143 z"
       id="path28" />
    <path
       style="fill:url(#linearGradient32);fill-opacity:1;stroke:#000000;stroke-opacity:0"
       d="m 402.89855,484.05797 c 8.13755,-3.61042 30.68925,-10.04849 30.13172,-11.9718 -6.75118,1.7917 -20.3275,4.1046 -6.20765,-0.29605 19.48655,-7.16488 38.81927,-18.37747 60.14197,-17.21557 3.21139,3.65216 -13.1832,16.89243 2.10319,9.12823 9.80795,-2.06334 32.62214,-15.0618 32.12235,-14.34611 -6.32529,5.91195 -23.17434,19.12763 -5.52878,12.08556 13.6239,-5.99573 25.21287,-11.38608 39.48598,-3.20985 21.06884,6.42834 44.13082,11.22003 61.33824,25.67425 9.33222,11.43792 0.0638,24.56338 -4.17368,35.78188 -2.94527,8.11707 -4.34425,29.11322 -9.18184,9.67205 -2.81308,-11.20504 -5.67311,-21.67552 -14.75527,-9.69295 -8.94521,10.25563 -15.13643,-14.39339 -27.45316,-12.94054 -37.07114,-6.43286 -74.08198,-15.75101 -112.01284,-15.93987 -15.48434,-1.1826 -30.52277,-5.57608 -46.01023,-6.72923 z"
       id="path30" />
    <path
       style="fill:url(#linearGradient34);fill-opacity:1;stroke:#000000;stroke-opacity:0"
       d="m 402.17391,482.6087 c 16.90821,-4.10628 33.81643,-8.21256 50.72464,-12.31884 -7.12874,1.11952 -16.55543,-1.04376 -3.33615,-2.94647 7.97968,-1.25607 29.02904,-11.58277 28.11214,-5.58194 -12.90999,18.15742 17.06407,-7.1833 21.11781,6.20091 12.42542,-4.9917 35.5085,-10.83661 41.19118,-15.55017 -21.94794,-5.86147 -42.6573,-16.07294 -65.1887,-19.69895 -15.92982,-2.80448 -32.25122,3.42379 -47.93514,-2.99617 -35.37681,-5.9917 -68.33857,-20.7108 -103.09831,-29.13695 -26.81312,-7.39292 -53.16606,-16.75532 -76.95431,-31.4289 -6.64482,-1.69362 11.55873,11.73181 16.40769,14.77372 10.33787,11.69394 38.42823,6.70774 38.77372,25.12618 -14.9186,6.44338 -35.84172,-0.0288 -52.62814,-2.43815 -20.0054,-5.02883 -41.33661,-9.70058 -56.60914,-24.5829 -1.15299,6.27456 23.66807,25.71623 18.47222,30.13456 -24.5957,-8.4449 -50.48773,-15.03895 -71.27363,-31.52679 -9.56423,-7.27393 -25.34272,-20.25892 -27.85573,-1.24954 -7.81991,12.58244 -20.094767,27.96607 -14.258344,42.52322 18.065694,20.90902 46.853434,25.15534 71.801664,33.41865 6.85536,1.29924 30.96265,10.75951 15.37908,1.20848 -8.04896,-5.80274 -16.09793,-11.60548 -24.14689,-17.40822 18.84058,9.17875 37.68115,18.35749 56.52173,27.53624 -8.10716,-3.36816 -17.97763,-18.2363 -2.00738,-12.57911 21.55183,4.9793 41.32808,15.55965 62.87695,20.55012 -7.45941,-0.76933 -39.56732,-7.12324 -16.9261,0.10594 41.63377,13.71569 84.67,22.80967 125.70519,38.38953 23.3369,7.66228 46.89087,14.64564 70.20642,22.3741 -21.2726,-12.28832 -45.59069,-17.36434 -67.46765,-28.17421 -10.25526,-5.62329 -39.80099,-9.50212 -32.60481,-24.46777 13.75006,-5.35169 30.61715,-1.67857 44.99999,-0.25657 z"
       id="path32" />
  </g>
</svg>
