<?xml version="1.0" encoding="UTF-8" standalone="no"?>
<!-- Created with Inkscape (http://www.inkscape.org/) -->

<svg
   version="1.1"
   id="svg1"
   width="283.51343"
   height="293.14365"
   viewBox="0 0 283.51343 293.14365"
   xmlns="http://www.w3.org/2000/svg"
   xmlns:svg="http://www.w3.org/2000/svg">
  <defs
     id="defs1" />
  <g
     id="layer2"
     transform="translate(-46.18706,-184.09853)">
    <path
       style="display:inline;fill:#1a1a1a;stroke:#000000;stroke-opacity:0"
       d="m 152.47253,442.4481 c -0.38087,-9.17496 -2.76328,-18.53702 0.21376,-27.52623 1.81596,-13.8059 2.32718,-27.78634 2.35034,-41.70454 -8.96721,-1.21218 -17.86986,-3.30782 -25.37964,-8.619 -9.27883,-7.09976 -19.50618,-15.35634 -21.07145,-27.67915 -1.36208,-11.18688 10.05363,-19.10789 7.43001,-30.78055 -0.7969,-9.66273 5.38283,-17.48129 8.25185,-26.25463 -6.40402,-16.34577 -12.9921,-33.28924 -11.82045,-51.18965 0.0163,-4.53171 -1.289,-11.04281 4.68752,-6.09246 12.47633,5.6543 23.73374,13.63217 34.6603,21.78945 6.00939,7.13331 12.20901,14.14133 22.51377,11.53485 9.75835,-1.26562 18.24186,6.77026 27.46535,1.20235 18.04673,-6.05534 37.19314,-6.75695 56.04832,-6.74499 7.99276,0.27059 0.18524,13.59799 0.7704,19.51568 -3.97183,17.27249 -11.27775,33.77313 -22.24308,47.7734 -8.97043,7.99046 -3.11286,21.45976 -11.61556,30.4477 -2.6367,7.96947 -14.26207,13.7545 -14.21527,20.74429 11.4804,12.71842 22.37759,26.44613 37.24542,35.40875 7.07915,4.54315 6.25269,11.20891 -0.88451,14.75153 -13.93394,10.88928 -30.43626,18.23365 -47.26471,23.20619 -15.5058,2.38609 -31.99456,6.36976 -47.14237,0.21701 z"
       id="path1" />
    <path
       style="fill:#ffcc00;stroke:#000000;stroke-opacity:0"
       d="m 164.7497,186.40415 c 19.68246,-4.29864 40.13127,-0.18044 59.2873,4.67129 27.28636,8.23003 51.53779,24.8059 69.42898,46.95678 26.10229,30.93235 37.46193,72.69394 35.52297,112.7191 -2.65902,24.61722 -9.67543,49.30867 -25.00171,69.18114 -13.67315,18.13032 -32.46983,32.15835 -52.04314,43.47812 -27.31608,12.70325 -58.61388,16.88216 -88.11717,10.12456 C 139.58041,470.26956 117.63233,458.9118 97.925186,444.88219 83.155993,431.99725 69.560264,416.92051 59.393072,400.0772 55.550178,392.00032 46.054986,374.71342 46.728365,372.00959 c 16.561841,16.42654 31.021679,35.59606 50.570951,48.60055 28.036454,16.50048 62.482084,26.21204 94.557444,16.70785 18.60699,-2.00243 35.72904,-10.48457 50.16263,-22.16681 13.85239,-11.58591 27.75407,-25.27402 33.60336,-42.77666 6.73689,-19.86763 11.45626,-41.10935 6.86341,-62.01668 -2.38954,-25.65542 -14.5991,-49.41821 -29.37001,-70.05459 -17.73186,-16.78474 -34.92297,-36.14508 -58.56072,-44.49208 -9.92407,-3.15482 -20.36332,-4.86177 -29.80573,-9.40702 z"
       id="path3" />
    <path
       style="fill:#ffcc00;stroke:#000000;stroke-width:0.0755683;stroke-opacity:0"
       d="m 176.24761,280.1328 c 0.58232,1.40387 0.55803,3.00209 0.46242,4.51544 -0.2329,2.17712 -1.11882,4.2628 -2.49977,5.96295 -1.91324,2.45789 -4.82048,3.98806 -7.78097,4.49419 -1.84074,0.20146 -3.74607,0.0779 -5.41094,-0.74639 -1.51473,-0.72882 -2.79827,-1.90804 -3.89382,-3.18949 -1.3021,-1.83871 -2.03332,-4.11429 -1.93846,-6.43346 -0.0898,-1.86871 0.44489,-3.697 1.20583,-5.40096 0.74407,-1.3156 1.66475,-2.57898 2.76147,-3.61438 0.53993,-0.4192 1.6783,-1.41149 1.88565,-1.40506 -0.97936,1.50745 -2.18834,2.90213 -2.87628,4.5776 -0.829,2.36787 -1.07332,5.10518 0.0588,7.35234 0.3994,1.36069 1.25365,2.50476 2.306,3.39546 1.03739,0.84874 2.22956,1.66695 3.59206,1.82013 1.54791,0.18117 3.16917,0.1889 4.63949,-0.49523 1.84831,-0.59641 3.42456,-1.89734 4.73685,-3.33919 0.98973,-1.6009 2.17562,-3.2032 2.46663,-5.10903 0.0966,-0.79444 0.08,-1.6039 0.28498,-2.38492 z"
       id="path3-2" />
  </g>
</svg>
